<svg id="Layer_1" data-name="Layer 1" xmlns="http://www.w3.org/2000/svg" viewBox="0 0 48 48"><defs><style>.cls-1{fill:#1f2123;}.cls-2{fill:#1591a3;}</style></defs><title>Artboard 1</title><path class="cls-1" d="M15.91,20.33a46.73,46.73,0,0,0-4.76-1.94l-2.48-.91a22.54,22.54,0,0,1-3-1.43,9.19,9.19,0,0,0-2-.83A6.81,6.81,0,0,1,3,15V25.15L6,26.5c.37.17.73.34,1.11.49l2,.77c.76.29,1.51.6,2.28.88s1.63.57,2.44.86l.08,0,.23-.68c.09-.25.16-.5.26-.73s.26-.66.37-1a32.32,32.32,0,0,0,.8-3.2c.17-.82.32-1.64.48-2.47.06-.32.11-.64.17-1Zm-5.49,7.13a.93.93,0,1,1,0-1.85.93.93,0,0,1,0,1.85Zm2.29.83a.93.93,0,1,1,.93-.9A.92.92,0,0,1,12.71,28.29Z"/><path class="cls-2" d="M45,14.52v11l-1.9,1c-.36.19-.7.4-1.05.6l-5.66,3.29-.09,0L36,30c-.74-1.26-1.44-2.54-2.07-3.85-.47-1-1-1.94-1.47-2.9-.19-.36-.42-.71-.64-1.05-.09-.14-.17-.28-.25-.42l-.06-.11.16-.08c1.53-.78,3.07-1.56,4.61-2.33.31-.15.6-.35.9-.54.51-.31,1-.64,1.52-.94a15,15,0,0,1,1.36-.7c.7-.33,1.41-.65,2.11-1,.5-.25,1-.53,1.48-.8Z"/><path class="cls-1" d="M25.11,34.08a1.68,1.68,0,0,1-.79.57,1.1,1.1,0,0,1-.88-.09,3.66,3.66,0,0,1-.38-.25,1,1,0,0,1-.28-.32,3.9,3.9,0,0,0-.88-1,1.24,1.24,0,0,0-.41-.23.55.55,0,0,0-.52.07h0c-.05,0,0,0,0-.08a1.55,1.55,0,0,0,0-.44,1.82,1.82,0,0,0-.11-.31,1.27,1.27,0,0,0-1.22-.72.72.72,0,0,0-.35.11l-.07,0,0-.1a1.55,1.55,0,0,0-.64-.78,1,1,0,0,0-.95-.11h0L16.88,30a6.1,6.1,0,0,1-1.06-.87,4.74,4.74,0,0,1-.76-1L15,28a.72.72,0,0,0-.19-.28l0-.1a21.34,21.34,0,0,0,.64-2.24c.25-1.05.47-2.11.67-3.18l.18-1,0-.07.06,0,.21.08a3,3,0,0,0,.86.21l.73.11,0,0,0,.14a1.53,1.53,0,0,0,0,.6,1.16,1.16,0,0,0,.74.77,3.31,3.31,0,0,0,.71.18,4.27,4.27,0,0,0,1.07,0,2.73,2.73,0,0,0,1.34-.46.13.13,0,0,1,.12,0,12.82,12.82,0,0,1,1.7.56,2.8,2.8,0,0,1,.74.45c.36.31.73.62,1.06,1a5.63,5.63,0,0,1,.7.83,1.86,1.86,0,0,0,.19.24l1.52,1.62a14.7,14.7,0,0,1,1,1.28c.26.36.53.71.82,1a4.29,4.29,0,0,1,.64,1,2.82,2.82,0,0,1,.28,1,1.37,1.37,0,0,1,0,.5.85.85,0,0,1-.53.56.39.39,0,0,1-.17,0,1.73,1.73,0,0,1-1-.41.2.2,0,0,1-.06-.09,4.63,4.63,0,0,0-1-1.67c-.25-.29-.54-.54-.81-.8a16.51,16.51,0,0,1-1.16-1.19,7.65,7.65,0,0,1-1-1.52l0-.07a.11.11,0,0,0-.13,0,.1.1,0,0,0-.06.12.36.36,0,0,0,0,.08A7.76,7.76,0,0,0,26.1,29a19.92,19.92,0,0,0,1.43,1.43A5.2,5.2,0,0,1,28.71,32c.07.14.12.28.17.42a.48.48,0,0,1,0,.27,1.49,1.49,0,0,1-.18.53.66.66,0,0,1-.71.32,1.84,1.84,0,0,1-.64-.24l-.08-.06-1.22-1.07c-.16-.15-.3-.32-.46-.47A16.55,16.55,0,0,0,23.71,30l-.25-.17-.08,0a.09.09,0,0,0-.11.05.1.1,0,0,0,0,.12l0,0a10.42,10.42,0,0,1,1.4,1.17c.32.31.63.62.93.94s.49.46.73.68l.71.62.07.06-.1.22a1.71,1.71,0,0,1-.39.52.76.76,0,0,1-.83.16,1,1,0,0,1-.37-.22,2.08,2.08,0,0,0-.26-.2l-1.91-1.42A7.14,7.14,0,0,0,22,31.69l-.1,0a.1.1,0,0,0-.12,0,.11.11,0,0,0,0,.14l.05,0a7.43,7.43,0,0,1,1.5.91L25,34Z"/><path class="cls-2" d="M30.92,23.39l.32.55c.41.72.79,1.47,1.15,2.22q.69,1.44,1.47,2.83l0,.07-.31.2a14.23,14.23,0,0,1-1.74.91c-.19.08-.38.19-.57.28a3.75,3.75,0,0,1-.48.23l-.05-.09A6.27,6.27,0,0,0,30,29.47c-.23-.26-.43-.54-.63-.82a16.41,16.41,0,0,0-1.43-1.7l-1.17-1.24-.07-.09a5.18,5.18,0,0,0-.85-1c-.29-.28-.6-.53-.89-.81a3.46,3.46,0,0,0-1.21-.7,14.87,14.87,0,0,0-1.49-.47.21.21,0,0,0-.2,0,2.28,2.28,0,0,1-1,.42,4,4,0,0,1-1.8-.13,1.26,1.26,0,0,1-.43-.21,1,1,0,0,1-.36-.81,2.44,2.44,0,0,1,0-.29s0-.09,0-.14h.41l1.08,0a1.45,1.45,0,0,0,.67-.2L21,21,21.1,21a1.7,1.7,0,0,1,1.05-.32,3.44,3.44,0,0,1,.94.14c.43.12.86.22,1.29.33a12.06,12.06,0,0,1,1.74.57,5.47,5.47,0,0,1,1.67,1.09,3.75,3.75,0,0,0,1.09.76,2.2,2.2,0,0,0,1,.21,1.84,1.84,0,0,0,1-.31l.07,0Z"/><path class="cls-2" d="M30.73,22.66l.84-.46.06.08a14.15,14.15,0,0,1,.94,1.62c.25.5.51,1,.76,1.49s.35.76.54,1.13c.46.9.93,1.8,1.44,2.69l.06.11-.78.5-.17-.28c-.47-.79-.9-1.6-1.31-2.42S32.4,25.67,32,25s-.8-1.48-1.24-2.19Z"/><path class="cls-2" d="M20.46,33.7a2.09,2.09,0,0,1-1-.1,1.07,1.07,0,0,1-.68-.71.29.29,0,0,1,0-.18l.24-.83a.54.54,0,0,1,.44-.39.61.61,0,0,1,.22,0,1.09,1.09,0,0,1,1,1,2.08,2.08,0,0,1-.15,1Z"/><path class="cls-2" d="M18.58,32.68a1.76,1.76,0,0,1-.49-.06,1.91,1.91,0,0,1-.32-.11A1.2,1.2,0,0,1,17,31.45a.81.81,0,0,1,.78-.89.74.74,0,0,1,.39.08,1.31,1.31,0,0,1,.69.82.24.24,0,0,1,0,.13l-.29,1Z"/><path class="cls-2" d="M22.73,34.31c-.13.1-.25.2-.39.28a.66.66,0,0,1-.43.07,1.24,1.24,0,0,1-1-.77.78.78,0,0,1,.19-.9.31.31,0,0,1,.34-.07,1.28,1.28,0,0,1,.28.14,2.33,2.33,0,0,1,.47.43,4.47,4.47,0,0,1,.54.75Z"/><path class="cls-2" d="M16.79,31.31a1.19,1.19,0,0,1-1.07-.56.59.59,0,0,1,0-.61.69.69,0,0,1,.32-.31.09.09,0,0,1,.09,0l1.05.68A2.38,2.38,0,0,0,16.79,31.31Z"/><path class="cls-1" d="M10.42,27.24a.71.71,0,1,1,.72-.69A.71.71,0,0,1,10.42,27.24Z"/><path class="cls-1" d="M12.7,28.07a.71.71,0,1,1,.72-.7A.7.7,0,0,1,12.7,28.07Z"/><path class="cls-1" d="M11.39,29.73l-.59-.23L9.38,29c-.28-.11-.56-.24-.82-.36l-.31-.14L3,26.11v18.7H7.27c3.52,0,6.38-.49,6.38-4V30.6L12.08,30Z"/><path class="cls-1" d="M44.3,27.15l-2.42,1.24c-.23.12-.47.26-.71.4l-.3.18L35.2,32.26l-.09,0-.7.37-.07,0v8c0,3.52,2.85,4,6.38,4H45V26.79Z"/><polygon class="cls-2" points="16.57 6.79 16.57 13.25 14.45 13.25 14.45 7.82 16.57 6.79"/><polygon class="cls-2" points="12.86 8.6 12.86 13.25 10.74 13.25 10.74 9.62 12.86 8.6"/><polygon class="cls-2" points="9.15 10.4 9.15 13.25 7.02 13.25 7.02 11.43 9.15 10.4"/><polygon class="cls-2" points="20.29 4.99 20.29 13.25 18.16 13.25 18.16 6.02 20.29 4.99"/><polygon class="cls-2" points="24 3.19 24 13.25 21.88 13.25 21.88 4.22 24 3.19"/><polygon class="cls-2" points="5.48 13.38 3 13.38 5.48 12.19 5.48 13.38"/><polygon class="cls-2" points="31.43 6.79 31.43 13.25 33.55 13.25 33.55 7.82 31.43 6.79"/><polygon class="cls-2" points="35.14 8.6 35.14 13.25 37.26 13.25 37.26 9.62 35.14 8.6"/><polygon class="cls-2" points="38.85 10.4 38.85 13.25 40.98 13.25 40.98 11.43 38.85 10.4"/><polygon class="cls-2" points="27.71 4.99 27.71 13.25 29.84 13.25 29.84 6.02 27.71 4.99"/><polygon class="cls-2" points="24 3.19 24 13.25 26.12 13.25 26.12 4.22 24 3.19"/><polygon class="cls-2" points="42.52 13.38 45 13.38 42.52 12.19 42.52 13.38"/></svg>