<svg id="Layer_1" data-name="Layer 1" xmlns="http://www.w3.org/2000/svg" viewBox="0 0 16 16"><defs><style>.cls-1{fill:#1f2123;}.cls-2{fill:#1591a3;}</style></defs><title>Artboard 1</title><path class="cls-1" d="M5.28,6.77a15.72,15.72,0,0,0-1.6-.65l-.83-.31a7.58,7.58,0,0,1-1-.48A3.09,3.09,0,0,0,1.17,5L.94,5V8.39l1,.45L2.32,9,3,9.26l.77.29.82.29h0l.08-.23c0-.08.05-.17.09-.25s.09-.22.12-.33A10.87,10.87,0,0,0,5.17,8c.06-.28.11-.55.16-.83,0-.11,0-.21.06-.32ZM3.43,9.16a.31.31,0,1,1,0-.62.31.31,0,0,1,0,.62Zm.77.28a.31.31,0,1,1,.31-.3A.31.31,0,0,1,4.2,9.44Z"/><path class="cls-2" d="M15.06,4.81V8.52l-.64.33-.35.2-1.9,1.11,0,0L12,10c-.25-.42-.48-.85-.7-1.3s-.33-.65-.5-1c-.06-.12-.14-.24-.21-.35l-.08-.14,0,0,.05,0,1.55-.78c.11-.05.2-.12.3-.18l.51-.32a5,5,0,0,1,.46-.23l.71-.33.5-.27Z"/><path class="cls-1" d="M8.37,11.39a.57.57,0,0,1-.26.19.37.37,0,0,1-.3,0l-.13-.08a.35.35,0,0,1-.1-.11A1.31,1.31,0,0,0,7.3,11a.42.42,0,0,0-.14-.08A.19.19,0,0,0,7,11H7s0,0,0,0a.52.52,0,0,0,0-.15.61.61,0,0,0,0-.11.43.43,0,0,0-.41-.24.24.24,0,0,0-.12,0h0v0a.52.52,0,0,0-.21-.26.35.35,0,0,0-.32,0h0L5.61,10a2.05,2.05,0,0,1-.36-.29A1.6,1.6,0,0,1,5,9.42l0-.06a.24.24,0,0,0-.07-.09v0a7.18,7.18,0,0,0,.22-.75c.09-.35.16-.71.23-1.07l.06-.33v0h0l.07,0a1,1,0,0,0,.29.07l.25,0h0v0a.51.51,0,0,0,0,.2.39.39,0,0,0,.25.26,1.11,1.11,0,0,0,.24.06,1.44,1.44,0,0,0,.36,0,.92.92,0,0,0,.45-.15h0A4.31,4.31,0,0,1,8,7.81.94.94,0,0,1,8.23,8c.12.1.24.21.36.32a1.89,1.89,0,0,1,.24.28l.06.08.51.55a4.94,4.94,0,0,1,.35.43c.09.12.18.24.28.35a1.44,1.44,0,0,1,.22.34,1,1,0,0,1,.09.33.46.46,0,0,1,0,.17.29.29,0,0,1-.18.19h-.06a.58.58,0,0,1-.34-.14l0,0a1.56,1.56,0,0,0-.33-.56c-.08-.1-.18-.18-.27-.27a5.55,5.55,0,0,1-.39-.4,2.57,2.57,0,0,1-.34-.51v0a0,0,0,0,0,0,0,0,0,0,0,0,0,0v0a2.61,2.61,0,0,0,.38.56,6.7,6.7,0,0,0,.48.48,1.75,1.75,0,0,1,.4.52l.06.14a.16.16,0,0,1,0,.09.5.5,0,0,1-.06.18.22.22,0,0,1-.24.11.62.62,0,0,1-.22-.08l0,0-.41-.36-.15-.16A5.57,5.57,0,0,0,7.9,10l-.08-.06h0a0,0,0,0,0,0,0,0,0,0,0,0,0,0h0a3.5,3.5,0,0,1,.47.39l.31.32c.08.08.16.15.25.23l.24.21,0,0,0,.08a.58.58,0,0,1-.13.18.26.26,0,0,1-.28.05.33.33,0,0,1-.12-.08l-.09-.07-.64-.48a2.4,2.4,0,0,0-.45-.26h0a0,0,0,0,0,0,0,0,0,0,0,0,0,0h0a2.5,2.5,0,0,1,.5.3l.56.41Z"/><path class="cls-2" d="M10.33,7.8l.11.19c.14.24.26.49.39.75s.32.64.49,1v0l-.11.07a4.79,4.79,0,0,1-.59.3l-.19.1-.16.08,0,0A2.11,2.11,0,0,0,10,9.84c-.08-.09-.14-.18-.21-.28A5.52,5.52,0,0,0,9.31,9l-.39-.42,0,0a1.74,1.74,0,0,0-.29-.34l-.3-.27a1.16,1.16,0,0,0-.41-.23,5,5,0,0,0-.5-.16.07.07,0,0,0-.07,0A.77.77,0,0,1,7,7.7a1.36,1.36,0,0,1-.6,0,.42.42,0,0,1-.15-.07.32.32,0,0,1-.12-.27.82.82,0,0,1,0-.1v0h.5a.49.49,0,0,0,.23-.07L7,7,7,7a.57.57,0,0,1,.35-.11,1.16,1.16,0,0,1,.32,0L8.13,7a4.06,4.06,0,0,1,.59.19,1.84,1.84,0,0,1,.56.37,1.26,1.26,0,0,0,.37.25.74.74,0,0,0,.32.07.62.62,0,0,0,.33-.1h0Z"/><path class="cls-2" d="M10.27,7.55l.28-.16,0,0a4.76,4.76,0,0,1,.32.55l.26.5.18.38c.16.3.31.61.48.9l0,0-.26.17-.06-.09c-.16-.27-.3-.54-.44-.81l-.36-.73c-.13-.25-.27-.5-.42-.74Z"/><path class="cls-2" d="M6.81,11.26a.7.7,0,0,1-.33,0A.36.36,0,0,1,6.25,11a.1.1,0,0,1,0-.06l.08-.28a.18.18,0,0,1,.15-.13h.07a.37.37,0,0,1,.33.34.7.7,0,0,1-.05.35Z"/><path class="cls-2" d="M6.18,10.92,6,10.9l-.11,0a.4.4,0,0,1-.24-.36.27.27,0,0,1,.26-.3.25.25,0,0,1,.13,0,.44.44,0,0,1,.23.27.08.08,0,0,1,0,0l-.1.35Z"/><path class="cls-2" d="M7.57,11.47l-.13.1a.22.22,0,0,1-.15,0A.42.42,0,0,1,7,11.33.26.26,0,0,1,7,11a.11.11,0,0,1,.11,0l.09,0a.78.78,0,0,1,.16.14,1.5,1.5,0,0,1,.18.25Z"/><path class="cls-2" d="M5.58,10.46a.4.4,0,0,1-.36-.19.2.2,0,0,1,0-.21A.23.23,0,0,1,5.32,10h0l.35.23A.8.8,0,0,0,5.58,10.46Z"/><path class="cls-1" d="M3.43,9.09a.24.24,0,1,1,.24-.23A.24.24,0,0,1,3.43,9.09Z"/><path class="cls-1" d="M4.2,9.37a.24.24,0,1,1,.24-.23A.24.24,0,0,1,4.2,9.37Z"/><path class="cls-1" d="M3.76,9.93l-.2-.08-.48-.19-.28-.12-.11,0L.94,8.71V15H2.37c1.18,0,2.14-.17,2.14-1.35V10.22L4,10Z"/><path class="cls-1" d="M14.83,9.06,14,9.48l-.24.14-.1.06-1.9,1.11,0,0-.23.12h0v2.69c0,1.18,1,1.35,2.15,1.35h1.44v-6Z"/><polygon class="cls-2" points="5.5 2.21 5.5 4.38 4.79 4.38 4.79 2.56 5.5 2.21"/><polygon class="cls-2" points="4.25 2.82 4.25 4.38 3.54 4.38 3.54 3.16 4.25 2.82"/><polygon class="cls-2" points="3 3.42 3 4.38 2.29 4.38 2.29 3.77 3 3.42"/><polygon class="cls-2" points="6.75 1.61 6.75 4.38 6.04 4.38 6.04 1.95 6.75 1.61"/><polygon class="cls-2" points="8 1 8 4.38 7.29 4.38 7.29 1.35 8 1"/><polygon class="cls-2" points="1.77 4.43 0.94 4.43 1.77 4.03 1.77 4.43"/><polygon class="cls-2" points="10.5 2.21 10.5 4.38 11.21 4.38 11.21 2.56 10.5 2.21"/><polygon class="cls-2" points="11.75 2.82 11.75 4.38 12.46 4.38 12.46 3.16 11.75 2.82"/><polygon class="cls-2" points="13 3.42 13 4.38 13.71 4.38 13.71 3.77 13 3.42"/><polygon class="cls-2" points="9.25 1.61 9.25 4.38 9.96 4.38 9.96 1.95 9.25 1.61"/><polygon class="cls-2" points="8 1 8 4.38 8.71 4.38 8.71 1.35 8 1"/><polygon class="cls-2" points="14.23 4.43 15.06 4.43 14.23 4.03 14.23 4.43"/></svg>