<svg id="Layer_1" data-name="Layer 1" xmlns="http://www.w3.org/2000/svg" viewBox="0 0 400 120"><defs><style>.cls-1{fill:#002140;}.cls-2{fill:#1f2123;}.cls-3{fill:#1591a3;}</style></defs><title>Artboard 1</title><path class="cls-1" d="M179.63,80.31h-7.94V54.42L157.71,79a3.43,3.43,0,0,1-1.44,1.42,4.22,4.22,0,0,1-2,.49,4,4,0,0,1-1.93-.49A3.48,3.48,0,0,1,150.95,79l-14-24.59V80.31H129V40.2a4,4,0,0,1,2.91-3.85,4.19,4.19,0,0,1,1.27-.11,4.24,4.24,0,0,1,1.23.27,3.7,3.7,0,0,1,1.89,1.62l17.95,31.2,17.95-31.2a3.86,3.86,0,0,1,1.93-1.64,4.11,4.11,0,0,1,2.56-.15,4,4,0,0,1,2.09,1.42,3.86,3.86,0,0,1,.82,2.43Z"/><path class="cls-1" d="M231.38,76.33a4.06,4.06,0,0,1-.3,1.58,3.74,3.74,0,0,1-.85,1.26A4,4,0,0,1,229,80a4,4,0,0,1-1.55.3H209.64a24.53,24.53,0,0,1-5.09-.55,22.65,22.65,0,0,1-5-1.68,21.38,21.38,0,0,1-4.53-2.9A18.87,18.87,0,0,1,191.31,71a20.27,20.27,0,0,1-2.5-5.52,24.62,24.62,0,0,1-.91-6.93V36.83h7.88V58.57a15.17,15.17,0,0,0,.92,5.64,12.45,12.45,0,0,0,2.35,3.85,11.33,11.33,0,0,0,3.12,2.43,16.84,16.84,0,0,0,3.23,1.3,15.5,15.5,0,0,0,2.7.53q1.17.11,1.53.11H223.5V36.83h7.88Z"/><path class="cls-1" d="M248.48,80.31h-7.88V36.83h7.88Z"/><path class="cls-1" d="M299.47,67.51a13.86,13.86,0,0,1-.59,4.2A12.54,12.54,0,0,1,297.32,75,10.43,10.43,0,0,1,295,77.43a14,14,0,0,1-2.7,1.64,13.51,13.51,0,0,1-2.83.94,13.18,13.18,0,0,1-2.71.3H256.39V72.42H286.8a4.62,4.62,0,0,0,3.53-1.33,5,5,0,0,0,1.26-3.58,5.78,5.78,0,0,0-.33-2,4.62,4.62,0,0,0-1-1.58,4.21,4.21,0,0,0-1.52-1,5.23,5.23,0,0,0-2-.36H268.67a14,14,0,0,1-4.12-.68,12.36,12.36,0,0,1-4.11-2.2,12,12,0,0,1-3.15-4,13,13,0,0,1-1.26-6,13,13,0,0,1,1.26-6,12.09,12.09,0,0,1,7.26-6.18,14,14,0,0,1,4.12-.68H295.5v7.88H268.67a4.53,4.53,0,0,0-3.5,1.36,5.11,5.11,0,0,0-1.26,3.61,5,5,0,0,0,1.26,3.59,4.61,4.61,0,0,0,3.5,1.32h18.19a13.94,13.94,0,0,1,2.7.35,13.53,13.53,0,0,1,2.83,1,13.69,13.69,0,0,1,2.68,1.68,11.37,11.37,0,0,1,2.26,2.44,12,12,0,0,1,1.56,3.27A14.06,14.06,0,0,1,299.47,67.51Z"/><path class="cls-1" d="M347.8,67.51a13.86,13.86,0,0,1-.59,4.2A12.54,12.54,0,0,1,345.64,75a10.43,10.43,0,0,1-2.27,2.43,14,14,0,0,1-2.7,1.64,13.51,13.51,0,0,1-2.83.94,13.18,13.18,0,0,1-2.71.3H304.71V72.42h30.41a4.62,4.62,0,0,0,3.53-1.33,5,5,0,0,0,1.26-3.58,5.78,5.78,0,0,0-.33-2,4.62,4.62,0,0,0-1-1.58,4.21,4.21,0,0,0-1.52-1,5.23,5.23,0,0,0-2-.36H317a14,14,0,0,1-4.12-.68,12.36,12.36,0,0,1-4.11-2.2,12,12,0,0,1-3.15-4,13,13,0,0,1-1.26-6,13,13,0,0,1,1.26-6,12.09,12.09,0,0,1,7.26-6.18,14,14,0,0,1,4.12-.68h26.83v7.88H317a4.53,4.53,0,0,0-3.5,1.36,5.11,5.11,0,0,0-1.26,3.61,5,5,0,0,0,1.26,3.59A4.61,4.61,0,0,0,317,54.6h18.19a13.94,13.94,0,0,1,2.7.35,13.53,13.53,0,0,1,2.83,1,13.69,13.69,0,0,1,2.68,1.68,11.37,11.37,0,0,1,2.26,2.44,12,12,0,0,1,1.56,3.27A14.06,14.06,0,0,1,347.8,67.51Z"/><path class="cls-1" d="M397,80.31h-7.88V69.63H361.41V80.31h-7.88V58.57a22.93,22.93,0,0,1,1.64-8.76,20.45,20.45,0,0,1,4.55-6.88,20.71,20.71,0,0,1,6.88-4.49,22.91,22.91,0,0,1,8.67-1.61H393a4,4,0,0,1,1.55.3,3.9,3.9,0,0,1,2.12,2.12,4,4,0,0,1,.3,1.55ZM361.41,61.75h27.71v-17H375.26q-.36,0-1.53.11a15.6,15.6,0,0,0-2.7.53,16.92,16.92,0,0,0-3.23,1.3,11.34,11.34,0,0,0-3.12,2.43,12.41,12.41,0,0,0-2.35,3.87,15.2,15.2,0,0,0-.92,5.62Z"/><path d="M129.12,109.29V94h10.09v1.72h-8.15v5.1h6.86v1.61h-6.86v6.84Z"/><path d="M147.58,109.39a6.54,6.54,0,0,1-2.93-.65,7.12,7.12,0,0,1-2.27-1.75,8.22,8.22,0,0,1-2-5.35,7.85,7.85,0,0,1,.55-2.91,8.12,8.12,0,0,1,1.53-2.47,7.39,7.39,0,0,1,2.29-1.72,6.49,6.49,0,0,1,2.86-.63,6.37,6.37,0,0,1,2.93.67,7.22,7.22,0,0,1,2.26,1.79,8.41,8.41,0,0,1,1.46,2.5,8,8,0,0,1-1.54,8.21,7.24,7.24,0,0,1-2.29,1.71A6.58,6.58,0,0,1,147.58,109.39Zm-5.23-7.74a6.81,6.81,0,0,0,.38,2.25,6.2,6.2,0,0,0,1.06,1.93,5.15,5.15,0,0,0,1.66,1.33,4.65,4.65,0,0,0,2.15.49,4.59,4.59,0,0,0,2.19-.52,5.17,5.17,0,0,0,1.65-1.38,6.28,6.28,0,0,0,1-1.94,6.89,6.89,0,0,0,.36-2.17,6.73,6.73,0,0,0-.38-2.24,6.27,6.27,0,0,0-1.08-1.93,5.12,5.12,0,0,0-1.66-1.33,4.95,4.95,0,0,0-4.31,0,5.05,5.05,0,0,0-1.65,1.37,6.5,6.5,0,0,0-1,1.93A6.67,6.67,0,0,0,142.35,101.65Z"/><path d="M157.47,109.29V94H164a4.08,4.08,0,0,1,1.85.42,4.86,4.86,0,0,1,1.46,1.12,5.23,5.23,0,0,1,1,1.57,4.8,4.8,0,0,1,.34,1.77,5.11,5.11,0,0,1-.4,2,4.59,4.59,0,0,1-1.12,1.61,3.94,3.94,0,0,1-1.69.93l3.7,5.85h-2.19l-3.48-5.49h-4v5.49Zm1.94-7.21H164a2.26,2.26,0,0,0,1.39-.44,3,3,0,0,0,.93-1.17,3.74,3.74,0,0,0,.33-1.57,3.29,3.29,0,0,0-.39-1.58,3.22,3.22,0,0,0-1-1.15,2.37,2.37,0,0,0-1.38-.43h-4.5Z"/><path d="M176.85,94l4.62,8,4.67-8h2.11l-5.81,9.7v5.57h-1.94v-5.61L174.72,94Z"/><path d="M195.57,109.39a6.54,6.54,0,0,1-2.93-.65,7.12,7.12,0,0,1-2.27-1.75,8.22,8.22,0,0,1-2-5.35,7.86,7.86,0,0,1,.55-2.91,8.12,8.12,0,0,1,1.53-2.47,7.39,7.39,0,0,1,2.29-1.72,6.49,6.49,0,0,1,2.86-.63,6.37,6.37,0,0,1,2.93.67,7.21,7.21,0,0,1,2.26,1.79,8.4,8.4,0,0,1,1.46,2.5,8,8,0,0,1-1.54,8.21,7.24,7.24,0,0,1-2.29,1.71A6.58,6.58,0,0,1,195.57,109.39Zm-5.23-7.74a6.81,6.81,0,0,0,.38,2.25,6.2,6.2,0,0,0,1.06,1.93,5.15,5.15,0,0,0,1.66,1.33,4.65,4.65,0,0,0,2.15.49,4.59,4.59,0,0,0,2.19-.52,5.17,5.17,0,0,0,1.65-1.38,6.28,6.28,0,0,0,1-1.94,6.89,6.89,0,0,0,.35-2.17,6.73,6.73,0,0,0-.38-2.24,6.27,6.27,0,0,0-1.08-1.93,5.12,5.12,0,0,0-1.66-1.33,4.95,4.95,0,0,0-4.31,0,5.05,5.05,0,0,0-1.65,1.37,6.5,6.5,0,0,0-1,1.93A6.68,6.68,0,0,0,190.34,101.65Z"/><path d="M211.77,109.39a6.74,6.74,0,0,1-3.08-.63,5.31,5.31,0,0,1-2-1.72,7.44,7.44,0,0,1-1.1-2.46,11.65,11.65,0,0,1-.34-2.84V94h1.94v7.72a10.49,10.49,0,0,0,.23,2.18,6,6,0,0,0,.74,1.9,3.78,3.78,0,0,0,1.4,1.33,5.11,5.11,0,0,0,4.41,0,3.84,3.84,0,0,0,1.4-1.36,6.1,6.1,0,0,0,.74-1.9,10.23,10.23,0,0,0,.23-2.15V94h1.94v7.72a11.81,11.81,0,0,1-.35,2.94,7,7,0,0,1-1.13,2.44,5.45,5.45,0,0,1-2,1.67A6.7,6.7,0,0,1,211.77,109.39Z"/><path d="M221.7,109.29V94h6.54a4.08,4.08,0,0,1,1.85.42,4.86,4.86,0,0,1,1.46,1.12,5.23,5.23,0,0,1,1,1.57,4.8,4.8,0,0,1,.34,1.77,5.11,5.11,0,0,1-.4,2,4.59,4.59,0,0,1-1.12,1.61,3.94,3.94,0,0,1-1.69.93l3.7,5.85h-2.19l-3.48-5.49h-4v5.49Zm1.94-7.21h4.63a2.26,2.26,0,0,0,1.39-.44,3,3,0,0,0,.92-1.17,3.74,3.74,0,0,0,.33-1.57,3.29,3.29,0,0,0-.39-1.58,3.22,3.22,0,0,0-1-1.15,2.37,2.37,0,0,0-1.38-.43h-4.5Z"/><path d="M253,105.35a3.57,3.57,0,0,1-.6,2.07,4.07,4.07,0,0,1-1.62,1.38,5.09,5.09,0,0,1-2.25.49h-7.25V94h7.59a3.08,3.08,0,0,1,1.86.57,3.75,3.75,0,0,1,1.2,1.46,4.33,4.33,0,0,1,.42,1.86,4.1,4.1,0,0,1-.57,2.1,3.48,3.48,0,0,1-1.62,1.45,3.84,3.84,0,0,1,2.08,1.43A4.06,4.06,0,0,1,253,105.35Zm-9.79-9.66v5.1h4.86a2.17,2.17,0,0,0,1.22-.34,2.49,2.49,0,0,0,.84-.92,2.64,2.64,0,0,0,.31-1.27,2.83,2.83,0,0,0-.29-1.3,2.41,2.41,0,0,0-.8-.91,2,2,0,0,0-1.15-.34ZM251,105a2.81,2.81,0,0,0-.31-1.31,2.62,2.62,0,0,0-.84-1,2.08,2.08,0,0,0-1.22-.37h-5.46v5.25h5.31a2.32,2.32,0,0,0,1.28-.37,2.69,2.69,0,0,0,.9-1A2.56,2.56,0,0,0,251,105Z"/><path d="M262,109.39a6.74,6.74,0,0,1-3.08-.63,5.31,5.31,0,0,1-2-1.72,7.44,7.44,0,0,1-1.1-2.46,11.65,11.65,0,0,1-.34-2.84V94h1.94v7.72a10.49,10.49,0,0,0,.23,2.18,6,6,0,0,0,.74,1.9,3.78,3.78,0,0,0,1.4,1.33,5.11,5.11,0,0,0,4.41,0,3.84,3.84,0,0,0,1.4-1.36,6.1,6.1,0,0,0,.74-1.9,10.23,10.23,0,0,0,.23-2.15V94h1.94v7.72a11.81,11.81,0,0,1-.35,2.94,7,7,0,0,1-1.13,2.44,5.45,5.45,0,0,1-2,1.67A6.7,6.7,0,0,1,262,109.39Z"/><path d="M280.92,97.22a3.19,3.19,0,0,0-.69-.58,6.16,6.16,0,0,0-1-.51,6.83,6.83,0,0,0-1.17-.37,6.14,6.14,0,0,0-1.32-.14,4.17,4.17,0,0,0-2.6.66,2.2,2.2,0,0,0-.84,1.82,1.84,1.84,0,0,0,.43,1.29,3.09,3.09,0,0,0,1.32.77q.89.3,2.27.62a15.42,15.42,0,0,1,2.75.84,4.26,4.26,0,0,1,1.79,1.32,3.56,3.56,0,0,1,.62,2.2,4.05,4.05,0,0,1-.42,1.9,3.67,3.67,0,0,1-1.17,1.33,5.21,5.21,0,0,1-1.76.77,9.28,9.28,0,0,1-2.19.25,10.39,10.39,0,0,1-2.27-.25,9.75,9.75,0,0,1-2.1-.72,9,9,0,0,1-1.85-1.18l.92-1.63a4.8,4.8,0,0,0,.89.72,8.57,8.57,0,0,0,2.76,1.14,7.66,7.66,0,0,0,1.68.18,4.63,4.63,0,0,0,2.54-.59,1.93,1.93,0,0,0,.9-1.72,1.87,1.87,0,0,0-.51-1.37,3.82,3.82,0,0,0-1.49-.86q-1-.34-2.41-.69a16.58,16.58,0,0,1-2.6-.85,3.66,3.66,0,0,1-1.58-1.21,3.32,3.32,0,0,1-.53-2,4.18,4.18,0,0,1,.71-2.47,4.36,4.36,0,0,1,2-1.52,7.33,7.33,0,0,1,2.82-.51,8.21,8.21,0,0,1,1.93.22,7.8,7.8,0,0,1,1.67.6,7.34,7.34,0,0,1,1.42.92Z"/><path d="M285.05,109.29V94H287v15.27Z"/><path d="M292.58,97.58v11.7h-1.94V94h1.63L301.62,106V94h1.94v15.25h-1.76Z"/><path d="M317.58,107.57v1.72H307.21V94h10.17v1.72h-8.24v4.95h7.16v1.61h-7.16v5.27Z"/><path d="M329.19,97.22a3.19,3.19,0,0,0-.69-.58,6.16,6.16,0,0,0-1-.51,6.83,6.83,0,0,0-1.17-.37,6.14,6.14,0,0,0-1.32-.14,4.17,4.17,0,0,0-2.6.66,2.2,2.2,0,0,0-.84,1.82A1.84,1.84,0,0,0,322,99.4a3.09,3.09,0,0,0,1.32.77q.89.3,2.27.62a15.42,15.42,0,0,1,2.75.84,4.26,4.26,0,0,1,1.79,1.32,3.56,3.56,0,0,1,.62,2.2,4.05,4.05,0,0,1-.42,1.9,3.67,3.67,0,0,1-1.17,1.33,5.21,5.21,0,0,1-1.76.77,9.28,9.28,0,0,1-2.19.25,10.39,10.39,0,0,1-2.27-.25,9.75,9.75,0,0,1-2.1-.72,9,9,0,0,1-1.85-1.18l.92-1.63a4.8,4.8,0,0,0,.89.72,8.57,8.57,0,0,0,2.76,1.14,7.66,7.66,0,0,0,1.68.18,4.63,4.63,0,0,0,2.54-.59,1.93,1.93,0,0,0,.9-1.72,1.87,1.87,0,0,0-.51-1.37,3.82,3.82,0,0,0-1.49-.86q-1-.34-2.41-.69a16.58,16.58,0,0,1-2.6-.85,3.66,3.66,0,0,1-1.58-1.21,3.32,3.32,0,0,1-.53-2,4.18,4.18,0,0,1,.71-2.47,4.36,4.36,0,0,1,2-1.52,7.33,7.33,0,0,1,2.82-.51,8.21,8.21,0,0,1,1.93.22,7.8,7.8,0,0,1,1.67.6,7.34,7.34,0,0,1,1.42.92Z"/><path d="M342.29,97.22a3.19,3.19,0,0,0-.69-.58,6.16,6.16,0,0,0-1-.51,6.83,6.83,0,0,0-1.17-.37,6.14,6.14,0,0,0-1.32-.14,4.17,4.17,0,0,0-2.6.66,2.2,2.2,0,0,0-.84,1.82,1.84,1.84,0,0,0,.43,1.29,3.09,3.09,0,0,0,1.32.77q.89.3,2.27.62a15.42,15.42,0,0,1,2.75.84,4.26,4.26,0,0,1,1.79,1.32,3.56,3.56,0,0,1,.62,2.2,4.05,4.05,0,0,1-.42,1.9,3.67,3.67,0,0,1-1.17,1.33,5.21,5.21,0,0,1-1.76.77,9.28,9.28,0,0,1-2.19.25,10.39,10.39,0,0,1-2.27-.25,9.75,9.75,0,0,1-2.1-.72,9,9,0,0,1-1.85-1.18l.92-1.63a4.8,4.8,0,0,0,.89.72,8.57,8.57,0,0,0,2.76,1.14,7.66,7.66,0,0,0,1.68.18,4.63,4.63,0,0,0,2.54-.59,1.93,1.93,0,0,0,.9-1.72,1.87,1.87,0,0,0-.51-1.37,3.82,3.82,0,0,0-1.49-.86q-1-.34-2.41-.69a16.58,16.58,0,0,1-2.6-.85,3.66,3.66,0,0,1-1.58-1.21,3.32,3.32,0,0,1-.53-2,4.18,4.18,0,0,1,.71-2.47,4.36,4.36,0,0,1,2-1.52,7.33,7.33,0,0,1,2.82-.51,8.21,8.21,0,0,1,1.93.22,7.8,7.8,0,0,1,1.67.6,7.34,7.34,0,0,1,1.42.92Z"/><path class="cls-2" d="M35.77,50.69a118.6,118.6,0,0,0-12.08-4.92c-2.1-.76-4.2-1.52-6.29-2.32a57.2,57.2,0,0,1-7.7-3.63,23.31,23.31,0,0,0-5-2.11A17.29,17.29,0,0,1,3,37.11v25.8l7.63,3.42c.93.42,1.86.86,2.81,1.25,1.68.67,3.37,1.31,5.06,2,1.92.74,3.84,1.51,5.78,2.22s4.13,1.46,6.2,2.18l.2,0,.59-1.73c.22-.62.4-1.26.65-1.86.35-.83.67-1.66.94-2.52a82,82,0,0,0,2-8.11c.43-2.08.82-4.17,1.21-6.26.16-.8.28-1.61.43-2.44ZM21.83,68.78a2.35,2.35,0,1,1,.06-4.71,2.35,2.35,0,0,1-.06,4.71Zm5.81,2.1A2.35,2.35,0,1,1,30,68.6,2.34,2.34,0,0,1,27.64,70.88Z"/><path class="cls-3" d="M109.58,36V64l-4.82,2.47c-.91.47-1.78,1-2.66,1.53L87.73,76.3l-.22.11-.73-1.21c-1.88-3.19-3.66-6.45-5.26-9.78-1.2-2.49-2.47-4.93-3.74-7.37-.49-.93-1.06-1.79-1.62-2.67-.22-.35-.42-.71-.63-1.06,0-.09-.09-.18-.14-.29l.39-.21c3.89-2,7.78-4,11.7-5.91.79-.39,1.53-.9,2.29-1.36,1.29-.79,2.55-1.62,3.85-2.4a38,38,0,0,1,3.46-1.77c1.78-.84,3.58-1.65,5.35-2.52,1.28-.63,2.51-1.35,3.76-2Z"/><path class="cls-2" d="M59.11,85.59a4.28,4.28,0,0,1-2,1.44,2.79,2.79,0,0,1-2.23-.23,9.29,9.29,0,0,1-1-.64,2.62,2.62,0,0,1-.72-.81A9.9,9.9,0,0,0,51,82.72a3.14,3.14,0,0,0-1-.58,1.4,1.4,0,0,0-1.31.19l-.06,0c-.13,0-.11-.12-.11-.2A3.93,3.93,0,0,0,48.34,81a4.63,4.63,0,0,0-.28-.79A3.21,3.21,0,0,0,45,78.42a1.84,1.84,0,0,0-.9.27l-.19.11-.1-.25a3.94,3.94,0,0,0-1.62-2,2.62,2.62,0,0,0-2.4-.28l-.06,0-1.47-.95a15.49,15.49,0,0,1-2.69-2.21,12,12,0,0,1-1.93-2.45c-.09-.15-.17-.3-.25-.45a1.83,1.83,0,0,0-.49-.71l.09-.25A54.16,54.16,0,0,0,34.6,63.6c.64-2.67,1.2-5.36,1.7-8.06.16-.84.31-1.68.46-2.52,0-.06,0-.11,0-.18l.16,0c.18.06.36.12.53.19a7.56,7.56,0,0,0,2.18.54c.62.08,1.23.18,1.85.27l.12,0,0,.35a3.88,3.88,0,0,0,.1,1.52,3,3,0,0,0,1.87,2,8.39,8.39,0,0,0,1.81.46,10.84,10.84,0,0,0,2.7.12,6.93,6.93,0,0,0,3.4-1.16.34.34,0,0,1,.31-.06,32.52,32.52,0,0,1,4.32,1.43A7.11,7.11,0,0,1,58,59.67c.92.79,1.84,1.58,2.7,2.44a14.29,14.29,0,0,1,1.78,2.11,4.73,4.73,0,0,0,.47.6l3.85,4.11a37.3,37.3,0,0,1,2.62,3.25c.67.9,1.34,1.81,2.08,2.66a10.89,10.89,0,0,1,1.62,2.57,7.15,7.15,0,0,1,.71,2.52,3.47,3.47,0,0,1-.12,1.27,2.15,2.15,0,0,1-1.34,1.41,1,1,0,0,1-.43,0,4.4,4.4,0,0,1-2.54-1,.5.5,0,0,1-.15-.23,11.75,11.75,0,0,0-2.47-4.24c-.63-.73-1.37-1.36-2.06-2a41.9,41.9,0,0,1-2.94-3,19.42,19.42,0,0,1-2.57-3.85,1.16,1.16,0,0,0-.1-.18.27.27,0,0,0-.32-.09.26.26,0,0,0-.15.3.91.91,0,0,0,.09.21,19.7,19.7,0,0,0,2.88,4.25,50.56,50.56,0,0,0,3.62,3.62,13.18,13.18,0,0,1,3,3.95c.17.35.3.71.44,1.07a1.21,1.21,0,0,1,.07.68,3.77,3.77,0,0,1-.46,1.35,1.67,1.67,0,0,1-1.8.8,4.68,4.68,0,0,1-1.62-.6,1.27,1.27,0,0,1-.2-.16c-1-.9-2.08-1.8-3.1-2.72-.41-.37-.77-.8-1.16-1.2a42,42,0,0,0-4.84-4.41l-.63-.44a.61.61,0,0,0-.21-.1.23.23,0,0,0-.28.13.26.26,0,0,0,0,.31l.1.08a26.43,26.43,0,0,1,3.56,3c.8.78,1.59,1.57,2.36,2.38.58.62,1.23,1.16,1.86,1.72l1.79,1.57.17.16c-.09.19-.17.38-.26.57a4.35,4.35,0,0,1-1,1.33,1.94,1.94,0,0,1-2.11.41,2.52,2.52,0,0,1-.93-.57,5.27,5.27,0,0,0-.65-.5l-4.85-3.6a18.12,18.12,0,0,0-3.36-2l-.26-.11a.26.26,0,0,0-.31.12.28.28,0,0,0,.07.35l.14.07a18.85,18.85,0,0,1,3.8,2.3c1.39,1.05,2.8,2.08,4.2,3.11Z"/><path class="cls-3" d="M73.86,58.46l.81,1.41c1.05,1.84,2,3.73,2.92,5.64q1.76,3.64,3.73,7.18l.09.18c-.27.18-.53.35-.8.52a36.12,36.12,0,0,1-4.43,2.3c-.49.21-1,.47-1.44.72a9.5,9.5,0,0,1-1.21.59l-.13-.22a15.9,15.9,0,0,0-2-2.88c-.58-.66-1.09-1.38-1.61-2.09a41.64,41.64,0,0,0-3.62-4.31c-1-1-2-2.1-3-3.15a1.43,1.43,0,0,1-.18-.22,13.14,13.14,0,0,0-2.15-2.56c-.74-.7-1.52-1.35-2.26-2a8.79,8.79,0,0,0-3.06-1.77,37.74,37.74,0,0,0-3.78-1.18.53.53,0,0,0-.5.09,5.78,5.78,0,0,1-2.6,1.07,10.24,10.24,0,0,1-4.56-.33,3.2,3.2,0,0,1-1.1-.54,2.43,2.43,0,0,1-.92-2,6.18,6.18,0,0,1,.07-.74c0-.12,0-.23.08-.36l1,0L46,53.58a3.69,3.69,0,0,0,1.7-.51c.32-.18.62-.39.93-.58l.28-.18a4.31,4.31,0,0,1,2.67-.8,8.73,8.73,0,0,1,2.39.35c1.08.31,2.18.56,3.27.84a30.61,30.61,0,0,1,4.42,1.45,13.87,13.87,0,0,1,4.24,2.77,9.51,9.51,0,0,0,2.76,1.92,5.59,5.59,0,0,0,2.43.52,4.68,4.68,0,0,0,2.51-.79l.17-.11Z"/><path class="cls-3" d="M73.38,56.6l2.13-1.18.14.21A35.92,35.92,0,0,1,78,59.75c.64,1.26,1.3,2.52,1.94,3.78.47.95.89,1.92,1.37,2.86C82.53,68.69,83.72,71,85,73.21l.15.27-2,1.26L82.73,74C81.54,72,80.44,70,79.4,67.9c-.92-1.82-1.8-3.66-2.72-5.48s-2-3.75-3.15-5.57Z"/><path class="cls-3" d="M47.3,84.6a5.31,5.31,0,0,1-2.47-.26,2.71,2.71,0,0,1-1.73-1.79.74.74,0,0,1,0-.45c.21-.7.4-1.41.6-2.12a1.37,1.37,0,0,1,1.12-1,1.54,1.54,0,0,1,.56,0,2.76,2.76,0,0,1,2.51,2.56,5.27,5.27,0,0,1-.39,2.6C47.43,84.29,47.37,84.44,47.3,84.6Z"/><path class="cls-3" d="M42.53,82a4.47,4.47,0,0,1-1.24-.15,4.84,4.84,0,0,1-.82-.28,3.05,3.05,0,0,1-1.84-2.69,2.06,2.06,0,0,1,2-2.26,1.88,1.88,0,0,1,1,.21,3.33,3.33,0,0,1,1.74,2.07.6.6,0,0,1,0,.32c-.24.88-.49,1.76-.74,2.63A1.27,1.27,0,0,1,42.53,82Z"/><path class="cls-3" d="M53.07,86.18c-.34.25-.64.51-1,.72a1.67,1.67,0,0,1-1.1.17,3.14,3.14,0,0,1-2.62-2,2,2,0,0,1,.49-2.28.8.8,0,0,1,.85-.19,3.25,3.25,0,0,1,.71.35,5.91,5.91,0,0,1,1.19,1.09A11.34,11.34,0,0,1,53,86Z"/><path class="cls-3" d="M38,78.54a3,3,0,0,1-2.72-1.42,1.49,1.49,0,0,1,0-1.55,1.74,1.74,0,0,1,.81-.79.22.22,0,0,1,.24,0L39,76.48A6,6,0,0,0,38,78.54Z"/><path class="cls-2" d="M21.83,68.23a1.81,1.81,0,1,1,1.82-1.76A1.81,1.81,0,0,1,21.83,68.23Z"/><path class="cls-2" d="M27.62,70.34a1.81,1.81,0,1,1,1.84-1.77A1.78,1.78,0,0,1,27.62,70.34Z"/><path class="cls-2" d="M24.28,74.55,22.79,74c-1.18-.45-2.4-.92-3.6-1.4-.72-.29-1.41-.61-2.08-.91l-.8-.36L3,65.34v47.46H13.84c8.94,0,16.18-1.25,16.18-10.19V76.76c-1.34-.49-2.69-1-4-1.52Z"/><path class="cls-2" d="M107.8,68c-2,1-4.1,2.08-6.14,3.14-.6.31-1.18.66-1.8,1l-.77.46L84.72,81l-.23.12L82.73,82l-.17.09V102.4c0,8.94,7.25,10.19,16.18,10.19h10.84V67.08Z"/><polygon class="cls-3" points="37.45 16.34 37.45 32.72 32.06 32.72 32.06 18.95 37.45 16.34"/><polygon class="cls-3" points="28.02 20.91 28.02 32.72 22.63 32.72 22.63 23.52 28.02 20.91"/><polygon class="cls-3" points="18.6 25.48 18.6 32.72 13.21 32.72 13.21 28.09 18.6 25.48"/><polygon class="cls-3" points="46.87 11.77 46.87 32.72 41.48 32.72 41.48 14.38 46.87 11.77"/><polygon class="cls-3" points="56.29 7.19 56.29 32.72 50.91 32.72 50.91 9.81 56.29 7.19"/><polygon class="cls-3" points="9.3 33.04 3 33.04 9.3 30.03 9.3 33.04"/><polygon class="cls-3" points="75.14 16.34 75.14 32.72 80.53 32.72 80.53 18.95 75.14 16.34"/><polygon class="cls-3" points="84.56 20.91 84.56 32.72 89.95 32.72 89.95 23.52 84.56 20.91"/><polygon class="cls-3" points="93.98 25.48 93.98 32.72 99.37 32.72 99.37 28.09 93.98 25.48"/><polygon class="cls-3" points="65.72 11.77 65.72 32.72 71.1 32.72 71.1 14.38 65.72 11.77"/><polygon class="cls-3" points="56.29 7.19 56.29 32.72 61.68 32.72 61.68 9.81 56.29 7.19"/><polygon class="cls-3" points="103.29 33.04 109.58 33.04 103.29 30.03 103.29 33.04"/></svg>