<?xml version="1.0" encoding="utf-8"?>
<!-- Generator: Adobe Illustrator 21.0.2, SVG Export Plug-In . SVG Version: 6.00 Build 0)  -->
<svg version="1.1" id="Layer_1" xmlns="http://www.w3.org/2000/svg" xmlns:xlink="http://www.w3.org/1999/xlink" x="0px" y="0px"
	 viewBox="0 0 400 120" style="enable-background:new 0 0 400 120;" xml:space="preserve">
<style type="text/css">
	.st0{fill:#FFFFFF;}
	.st1{fill:#1591A3;}
</style>
<g>
	<path class="st0" d="M179.6,80.3h-7.9V54.4l-14,24.6c-0.3,0.6-0.8,1.1-1.4,1.4c-0.6,0.3-1.3,0.5-2,0.5s-1.3-0.2-1.9-0.5
		c-0.6-0.3-1.1-0.8-1.4-1.4l-14-24.6v25.9h-8V40.2c0-0.9,0.3-1.7,0.8-2.4s1.2-1.2,2.1-1.4c0.4-0.1,0.8-0.1,1.3-0.1
		c0.4,0,0.8,0.1,1.2,0.3s0.8,0.4,1.1,0.6c0.3,0.3,0.6,0.6,0.8,1l17.9,31.2l17.9-31.2c0.5-0.8,1.1-1.3,1.9-1.6
		c0.8-0.3,1.7-0.4,2.6-0.2c0.8,0.2,1.5,0.7,2.1,1.4c0.5,0.7,0.8,1.5,0.8,2.4L179.6,80.3L179.6,80.3z"/>
	<path class="st0" d="M231.4,76.3c0,0.6-0.1,1.1-0.3,1.6s-0.5,0.9-0.8,1.3c-0.4,0.4-0.8,0.6-1.3,0.8c-0.5,0.2-1,0.3-1.5,0.3h-17.8
		c-1.7,0-3.4-0.2-5.1-0.5c-1.7-0.4-3.4-0.9-5-1.7c-1.6-0.8-3.1-1.7-4.5-2.9c-1.4-1.2-2.7-2.6-3.7-4.2c-1.1-1.6-1.9-3.4-2.5-5.5
		s-0.9-4.4-0.9-6.9V36.8h7.9v21.7c0,2.2,0.3,4.1,0.9,5.6c0.6,1.5,1.4,2.8,2.3,3.9c0.9,1,2,1.8,3.1,2.4s2.2,1,3.2,1.3
		s1.9,0.5,2.7,0.5c0.8,0.1,1.3,0.1,1.5,0.1h13.9V36.8h7.9L231.4,76.3L231.4,76.3z"/>
	<path class="st0" d="M248.5,80.3h-7.9V36.8h7.9V80.3z"/>
	<path class="st0" d="M299.5,67.5c0,1.6-0.2,3-0.6,4.2S298,74,297.3,75c-0.6,1-1.4,1.8-2.3,2.4c-0.9,0.7-1.8,1.2-2.7,1.6
		c-0.9,0.4-1.9,0.7-2.8,0.9c-1,0.2-1.9,0.3-2.7,0.3h-30.4v-7.9h30.4c1.5,0,2.7-0.4,3.5-1.3s1.3-2.1,1.3-3.6c0-0.7-0.1-1.4-0.3-2
		c-0.2-0.6-0.5-1.1-1-1.6c-0.4-0.4-0.9-0.8-1.5-1s-1.3-0.4-2-0.4h-18.1c-1.3,0-2.6-0.2-4.1-0.7s-2.8-1.2-4.1-2.2
		c-1.3-1-2.3-2.3-3.2-4c-0.8-1.6-1.3-3.6-1.3-6s0.4-4.4,1.3-6c0.8-1.6,1.9-3,3.2-4c1.3-1,2.6-1.8,4.1-2.2c1.5-0.5,2.8-0.7,4.1-0.7
		h26.8v7.9h-26.8c-1.5,0-2.7,0.5-3.5,1.4s-1.3,2.1-1.3,3.6s0.4,2.7,1.3,3.6c0.8,0.9,2,1.3,3.5,1.3h18.1h0.1c0.8,0,1.7,0.1,2.7,0.3
		c0.9,0.2,1.9,0.5,2.8,1c0.9,0.4,1.8,1,2.7,1.7c0.8,0.7,1.6,1.5,2.3,2.4c0.7,1,1.2,2,1.6,3.3C299.3,64.6,299.5,66,299.5,67.5z"/>
	<path class="st0" d="M347.8,67.5c0,1.6-0.2,3-0.6,4.2s-0.9,2.3-1.6,3.3c-0.6,1-1.4,1.8-2.3,2.4c-0.9,0.7-1.8,1.2-2.7,1.6
		c-0.9,0.4-1.9,0.7-2.8,0.9c-1,0.2-1.9,0.3-2.7,0.3h-30.4v-7.9h30.4c1.5,0,2.7-0.4,3.5-1.3s1.3-2.1,1.3-3.6c0-0.7-0.1-1.4-0.3-2
		c-0.2-0.6-0.5-1.1-1-1.6c-0.4-0.4-0.9-0.8-1.5-1s-1.3-0.4-2-0.4H317c-1.3,0-2.6-0.2-4.1-0.7s-2.8-1.2-4.1-2.2c-1.3-1-2.3-2.3-3.2-4
		c-0.8-1.6-1.3-3.6-1.3-6s0.4-4.4,1.3-6c0.8-1.6,1.9-3,3.2-4c1.3-1,2.6-1.8,4.1-2.2c1.5-0.5,2.8-0.7,4.1-0.7h26.8v7.9H317
		c-1.5,0-2.7,0.5-3.5,1.4s-1.3,2.1-1.3,3.6s0.4,2.7,1.3,3.6c0.8,0.9,2,1.3,3.5,1.3h18.1h0.1c0.8,0,1.7,0.1,2.7,0.3
		c0.9,0.2,1.9,0.5,2.8,1c0.9,0.4,1.8,1,2.7,1.7c0.8,0.7,1.6,1.5,2.3,2.4c0.7,1,1.2,2,1.6,3.3C347.6,64.6,347.8,66,347.8,67.5z"/>
	<path class="st0" d="M397,80.3h-7.9V69.6h-27.7v10.7h-7.9V58.6c0-3.2,0.5-6.1,1.6-8.8s2.6-5,4.5-6.9s4.2-3.4,6.9-4.5
		c2.6-1.1,5.5-1.6,8.7-1.6H393c0.5,0,1.1,0.1,1.5,0.3c0.5,0.2,0.9,0.5,1.3,0.8c0.4,0.4,0.6,0.8,0.8,1.3c0.2,0.5,0.3,1,0.3,1.5v39.6
		C396.9,80.3,397,80.3,397,80.3z M361.4,61.8h27.7v-17h-13.9c-0.2,0-0.8,0-1.5,0.1c-0.8,0.1-1.7,0.2-2.7,0.5s-2.1,0.7-3.2,1.3
		s-2.2,1.4-3.1,2.4c-1,1-1.7,2.3-2.3,3.9c-0.6,1.5-0.9,3.4-0.9,5.6v3.2H361.4z"/>
</g>
<g>
	<path class="st0" d="M129.1,109.3V94h10.1v1.7H131v5.1h6.9v1.6H131v6.8h-1.9V109.3z"/>
	<path class="st0" d="M147.6,109.4c-1.1,0-2.1-0.2-2.9-0.6c-0.9-0.4-1.6-1-2.3-1.8c-0.6-0.7-1.1-1.6-1.5-2.5
		c-0.3-0.9-0.5-1.9-0.5-2.9s0.2-2,0.5-2.9c0.4-0.9,0.9-1.7,1.5-2.5c0.7-0.7,1.4-1.3,2.3-1.7c0.9-0.4,1.8-0.6,2.9-0.6
		c1.1,0,2.1,0.2,2.9,0.7c0.9,0.4,1.6,1,2.3,1.8c0.6,0.7,1.1,1.6,1.5,2.5c0.3,0.9,0.5,1.9,0.5,2.8c0,1-0.2,2-0.5,2.9
		c-0.4,0.9-0.9,1.7-1.5,2.5c-0.7,0.7-1.4,1.3-2.3,1.7C149.6,109.2,148.6,109.4,147.6,109.4z M142.4,101.6c0,0.8,0.1,1.5,0.4,2.2
		c0.3,0.7,0.6,1.4,1.1,1.9c0.5,0.6,1,1,1.7,1.3c0.6,0.3,1.4,0.5,2.2,0.5s1.5-0.2,2.2-0.5c0.6-0.3,1.2-0.8,1.6-1.4
		c0.5-0.6,0.8-1.2,1-1.9c0.2-0.7,0.4-1.4,0.4-2.2c0-0.8-0.1-1.5-0.4-2.2c-0.3-0.7-0.6-1.4-1.1-1.9c-0.5-0.6-1-1-1.7-1.3
		c-0.6-0.3-1.3-0.5-2.1-0.5s-1.5,0.2-2.2,0.5c-0.6,0.3-1.2,0.8-1.6,1.4c-0.5,0.6-0.8,1.2-1,1.9C142.5,100.2,142.4,100.9,142.4,101.6
		z"/>
	<path class="st0" d="M157.5,109.3V94h6.5c0.7,0,1.3,0.1,1.8,0.4c0.6,0.3,1,0.7,1.5,1.1c0.4,0.5,0.7,1,1,1.6
		c0.2,0.6,0.3,1.2,0.3,1.8c0,0.7-0.1,1.4-0.4,2c-0.3,0.6-0.6,1.2-1.1,1.6s-1,0.8-1.7,0.9l3.7,5.9h-2.2l-3.5-5.5h-4v5.5H157.5z
		 M159.4,102.1h4.6c0.5,0,1-0.1,1.4-0.4s0.7-0.7,0.9-1.2s0.3-1,0.3-1.6s-0.1-1.1-0.4-1.6c-0.3-0.5-0.6-0.9-1-1.2
		c-0.4-0.3-0.9-0.4-1.4-0.4h-4.5L159.4,102.1L159.4,102.1z"/>
	<path class="st0" d="M176.9,94l4.6,8l4.7-8h2.1l-5.8,9.7v5.6h-1.9v-5.6l-5.8-9.7H176.9z"/>
	<path class="st0" d="M195.6,109.4c-1.1,0-2.1-0.2-2.9-0.6c-0.9-0.4-1.6-1-2.3-1.8c-0.6-0.7-1.1-1.6-1.5-2.5
		c-0.3-0.9-0.5-1.9-0.5-2.9s0.2-2,0.5-2.9c0.4-0.9,0.9-1.7,1.5-2.5c0.7-0.7,1.4-1.3,2.3-1.7c0.9-0.4,1.8-0.6,2.9-0.6
		c1.1,0,2.1,0.2,2.9,0.7c0.9,0.4,1.6,1,2.3,1.8c0.6,0.7,1.1,1.6,1.5,2.5c0.3,0.9,0.5,1.9,0.5,2.8c0,1-0.2,2-0.5,2.9
		c-0.4,0.9-0.9,1.7-1.5,2.5c-0.7,0.7-1.4,1.3-2.3,1.7C197.6,109.2,196.6,109.4,195.6,109.4z M190.3,101.6c0,0.8,0.1,1.5,0.4,2.2
		c0.3,0.7,0.6,1.4,1.1,1.9c0.5,0.6,1,1,1.7,1.3c0.6,0.3,1.4,0.5,2.2,0.5s1.5-0.2,2.2-0.5c0.6-0.3,1.2-0.8,1.6-1.4
		c0.5-0.6,0.8-1.2,1-1.9c0.2-0.7,0.4-1.4,0.4-2.2c0-0.8-0.1-1.5-0.4-2.2c-0.3-0.7-0.6-1.4-1.1-1.9c-0.5-0.6-1-1-1.7-1.3
		c-0.6-0.3-1.3-0.5-2.1-0.5s-1.5,0.2-2.2,0.5c-0.6,0.3-1.2,0.8-1.6,1.4c-0.5,0.6-0.8,1.2-1,1.9C190.5,100.2,190.3,100.9,190.3,101.6
		z"/>
	<path class="st0" d="M211.8,109.4c-1.2,0-2.2-0.2-3.1-0.6c-0.8-0.4-1.5-1-2-1.7s-0.9-1.5-1.1-2.5c-0.2-0.9-0.3-1.9-0.3-2.8V94h1.9
		v7.7c0,0.7,0.1,1.5,0.2,2.2s0.4,1.3,0.7,1.9s0.8,1,1.4,1.3c0.6,0.3,1.3,0.5,2.2,0.5s1.6-0.2,2.2-0.5c0.6-0.3,1.1-0.8,1.4-1.4
		c0.3-0.6,0.6-1.2,0.7-1.9c0.2-0.7,0.2-1.4,0.2-2.2V94h1.9v7.7c0,1-0.1,2-0.4,2.9c-0.2,0.9-0.6,1.7-1.1,2.4c-0.5,0.7-1.2,1.3-2,1.7
		S212.9,109.4,211.8,109.4z"/>
	<path class="st0" d="M221.7,109.3V94h6.5c0.7,0,1.3,0.1,1.8,0.4c0.6,0.3,1,0.7,1.5,1.1c0.4,0.5,0.7,1,1,1.6
		c0.2,0.6,0.3,1.2,0.3,1.8c0,0.7-0.1,1.4-0.4,2c-0.3,0.6-0.6,1.2-1.1,1.6s-1,0.8-1.7,0.9l3.7,5.9h-2.2l-3.5-5.5h-4v5.5H221.7z
		 M223.6,102.1h4.6c0.5,0,1-0.1,1.4-0.4s0.7-0.7,0.9-1.2s0.3-1,0.3-1.6s-0.1-1.1-0.4-1.6c-0.3-0.5-0.6-0.9-1-1.2
		c-0.4-0.3-0.9-0.4-1.4-0.4h-4.5L223.6,102.1L223.6,102.1z"/>
	<path class="st0" d="M253,105.3c0,0.8-0.2,1.5-0.6,2.1c-0.4,0.6-0.9,1-1.6,1.4c-0.7,0.3-1.4,0.5-2.2,0.5h-7.2V94h7.6
		c0.7,0,1.3,0.2,1.9,0.6c0.5,0.4,0.9,0.9,1.2,1.5s0.4,1.2,0.4,1.9c0,0.7-0.2,1.4-0.6,2.1c-0.4,0.7-0.9,1.1-1.6,1.5
		c0.9,0.3,1.6,0.7,2.1,1.4C252.7,103.6,253,104.4,253,105.3z M243.2,95.7v5.1h4.9c0.5,0,0.9-0.1,1.2-0.3c0.4-0.2,0.6-0.5,0.8-0.9
		s0.3-0.8,0.3-1.3s-0.1-0.9-0.3-1.3s-0.5-0.7-0.8-0.9c-0.3-0.2-0.7-0.3-1.2-0.3L243.2,95.7L243.2,95.7z M251,105
		c0-0.5-0.1-0.9-0.3-1.3s-0.5-0.7-0.8-1c-0.4-0.2-0.8-0.4-1.2-0.4h-5.5v5.2h5.3c0.5,0,0.9-0.1,1.3-0.4c0.4-0.2,0.7-0.6,0.9-1
		C250.9,105.9,251,105.5,251,105z"/>
	<path class="st0" d="M262,109.4c-1.2,0-2.2-0.2-3.1-0.6c-0.8-0.4-1.5-1-2-1.7s-0.9-1.5-1.1-2.5c-0.2-0.9-0.3-1.9-0.3-2.8V94h1.9
		v7.7c0,0.7,0.1,1.5,0.2,2.2c0.2,0.7,0.4,1.3,0.7,1.9c0.3,0.6,0.8,1,1.4,1.3s1.3,0.5,2.2,0.5c0.9,0,1.6-0.2,2.2-0.5s1.1-0.8,1.4-1.4
		s0.6-1.2,0.7-1.9c0.2-0.7,0.2-1.4,0.2-2.2V94h1.9v7.7c0,1-0.1,2-0.4,2.9s-0.6,1.7-1.1,2.4c-0.5,0.7-1.2,1.3-2,1.7
		C264.2,109.2,263.2,109.4,262,109.4z"/>
	<path class="st0" d="M280.9,97.2c-0.2-0.2-0.4-0.4-0.7-0.6c-0.3-0.2-0.6-0.4-1-0.5c-0.4-0.2-0.7-0.3-1.2-0.4
		c-0.4-0.1-0.9-0.1-1.3-0.1c-1.2,0-2,0.2-2.6,0.7c-0.6,0.4-0.8,1.1-0.8,1.8c0,0.5,0.1,1,0.4,1.3s0.7,0.6,1.3,0.8
		c0.6,0.2,1.4,0.4,2.3,0.6c1.1,0.2,2,0.5,2.8,0.8s1.4,0.8,1.8,1.3c0.4,0.6,0.6,1.3,0.6,2.2c0,0.7-0.1,1.4-0.4,1.9s-0.7,1-1.2,1.3
		c-0.5,0.4-1.1,0.6-1.8,0.8c-0.7,0.2-1.4,0.2-2.2,0.2c-0.8,0-1.5-0.1-2.3-0.2c-0.7-0.2-1.4-0.4-2.1-0.7c-0.7-0.3-1.3-0.7-1.8-1.2
		l0.9-1.6c0.2,0.2,0.5,0.5,0.9,0.7s0.8,0.5,1.2,0.7c0.5,0.2,1,0.4,1.5,0.5s1.1,0.2,1.7,0.2c1.1,0,1.9-0.2,2.5-0.6s0.9-1,0.9-1.7
		c0-0.6-0.2-1-0.5-1.4c-0.3-0.3-0.8-0.6-1.5-0.9c-0.7-0.2-1.5-0.5-2.4-0.7c-1-0.3-1.9-0.5-2.6-0.8s-1.2-0.7-1.6-1.2s-0.5-1.2-0.5-2
		c0-1,0.2-1.8,0.7-2.5s1.1-1.2,2-1.5c0.8-0.3,1.8-0.5,2.8-0.5c0.7,0,1.3,0.1,1.9,0.2s1.2,0.3,1.7,0.6c0.5,0.3,1,0.6,1.4,0.9
		L280.9,97.2z"/>
	<path class="st0" d="M285.1,109.3V94h1.9v15.3H285.1z"/>
	<path class="st0" d="M292.6,97.6v11.7h-1.9V94h1.6l9.3,11.9V94h1.9v15.3h-1.8L292.6,97.6z"/>
	<path class="st0" d="M317.6,107.6v1.7h-10.4V94h10.2v1.7h-8.2v4.9h7.2v1.6h-7.2v5.3L317.6,107.6L317.6,107.6z"/>
	<path class="st0" d="M329.2,97.2c-0.2-0.2-0.4-0.4-0.7-0.6c-0.3-0.2-0.6-0.4-1-0.5c-0.4-0.2-0.7-0.3-1.2-0.4
		c-0.4-0.1-0.9-0.1-1.3-0.1c-1.2,0-2,0.2-2.6,0.7c-0.6,0.4-0.8,1.1-0.8,1.8c0,0.5,0.1,1,0.4,1.3s0.7,0.6,1.3,0.8
		c0.6,0.2,1.4,0.4,2.3,0.6c1.1,0.2,2,0.5,2.8,0.8s1.4,0.8,1.8,1.3c0.4,0.6,0.6,1.3,0.6,2.2c0,0.7-0.1,1.4-0.4,1.9s-0.7,1-1.2,1.3
		c-0.5,0.4-1.1,0.6-1.8,0.8c-0.7,0.2-1.4,0.2-2.2,0.2c-0.8,0-1.5-0.1-2.3-0.2c-0.7-0.2-1.4-0.4-2.1-0.7c-0.7-0.3-1.3-0.7-1.8-1.2
		l0.9-1.6c0.2,0.2,0.5,0.5,0.9,0.7s0.8,0.5,1.2,0.7c0.5,0.2,1,0.4,1.5,0.5s1.1,0.2,1.7,0.2c1.1,0,1.9-0.2,2.5-0.6s0.9-1,0.9-1.7
		c0-0.6-0.2-1-0.5-1.4c-0.3-0.3-0.8-0.6-1.5-0.9c-0.7-0.2-1.5-0.5-2.4-0.7c-1-0.3-1.9-0.5-2.6-0.8s-1.2-0.7-1.6-1.2s-0.5-1.2-0.5-2
		c0-1,0.2-1.8,0.7-2.5s1.1-1.2,2-1.5c0.8-0.3,1.8-0.5,2.8-0.5c0.7,0,1.3,0.1,1.9,0.2s1.2,0.3,1.7,0.6c0.5,0.3,1,0.6,1.4,0.9
		L329.2,97.2z"/>
	<path class="st0" d="M342.3,97.2c-0.2-0.2-0.4-0.4-0.7-0.6c-0.3-0.2-0.6-0.4-1-0.5c-0.4-0.2-0.7-0.3-1.2-0.4
		c-0.4-0.1-0.9-0.1-1.3-0.1c-1.2,0-2,0.2-2.6,0.7c-0.6,0.4-0.8,1.1-0.8,1.8c0,0.5,0.1,1,0.4,1.3s0.7,0.6,1.3,0.8
		c0.6,0.2,1.4,0.4,2.3,0.6c1.1,0.2,2,0.5,2.8,0.8s1.4,0.8,1.8,1.3c0.4,0.6,0.6,1.3,0.6,2.2c0,0.7-0.1,1.4-0.4,1.9s-0.7,1-1.2,1.3
		c-0.5,0.4-1.1,0.6-1.8,0.8c-0.7,0.2-1.4,0.2-2.2,0.2c-0.8,0-1.5-0.1-2.3-0.2c-0.7-0.2-1.4-0.4-2.1-0.7c-0.7-0.3-1.3-0.7-1.8-1.2
		l0.9-1.6c0.2,0.2,0.5,0.5,0.9,0.7s0.8,0.5,1.2,0.7c0.5,0.2,1,0.4,1.5,0.5s1.1,0.2,1.7,0.2c1.1,0,1.9-0.2,2.5-0.6s0.9-1,0.9-1.7
		c0-0.6-0.2-1-0.5-1.4c-0.3-0.3-0.8-0.6-1.5-0.9c-0.7-0.2-1.5-0.5-2.4-0.7c-1-0.3-1.9-0.5-2.6-0.8s-1.2-0.7-1.6-1.2s-0.5-1.2-0.5-2
		c0-1,0.2-1.8,0.7-2.5s1.1-1.2,2-1.5c0.8-0.3,1.8-0.5,2.8-0.5c0.7,0,1.3,0.1,1.9,0.2s1.2,0.3,1.7,0.6c0.5,0.3,1,0.6,1.4,0.9
		L342.3,97.2z"/>
</g>
<path class="st0" d="M35.8,50.7c-3.9-1.9-8-3.4-12.1-4.9c-2.1-0.8-4.2-1.5-6.3-2.3c-2.7-1-5.2-2.2-7.7-3.6c-1.6-0.9-3.2-1.6-5-2.1
	c-0.6-0.2-1.2-0.4-1.7-0.6V63c2.5,1.1,5.1,2.3,7.6,3.4c0.9,0.4,1.9,0.9,2.8,1.2c1.7,0.7,3.4,1.3,5.1,2c1.9,0.7,3.8,1.5,5.8,2.2
	c2.1,0.8,4.1,1.5,6.2,2.2c0.1,0,0.1,0,0.2,0c0.2-0.6,0.4-1.2,0.6-1.7c0.2-0.6,0.4-1.3,0.7-1.9c0.4-0.8,0.7-1.7,0.9-2.5
	c0.8-2.7,1.5-5.4,2-8.1c0.4-2.1,0.8-4.2,1.2-6.3c0.2-0.8,0.3-1.6,0.4-2.4C36.3,50.9,36,50.8,35.8,50.7z M21.8,68.8
	c-1.3,0-2.4-1.1-2.3-2.4c0-1.3,1.1-2.4,2.4-2.3c1.3,0,2.3,1.1,2.3,2.4C24.2,67.8,23.1,68.8,21.8,68.8z M27.6,70.9
	c-1.3,0-2.4-1.1-2.3-2.4c0-1.3,1.1-2.4,2.4-2.3c1.3,0,2.3,1.1,2.3,2.4S28.9,70.9,27.6,70.9z"/>
<path class="st1" d="M109.6,36v28c-1.6,0.8-3.2,1.6-4.8,2.5c-0.9,0.5-1.8,1-2.7,1.5c-4.8,2.8-9.6,5.6-14.4,8.3
	c-0.1,0-0.1,0.1-0.2,0.1c-0.2-0.4-0.5-0.8-0.7-1.2c-1.9-3.2-3.7-6.4-5.3-9.8c-1.2-2.5-2.5-4.9-3.7-7.4c-0.5-0.9-1.1-1.8-1.6-2.7
	c-0.2-0.3-0.4-0.7-0.6-1.1c0-0.1-0.1-0.2-0.1-0.3c0.1-0.1,0.3-0.1,0.4-0.2c3.9-2,7.8-4,11.7-5.9c0.8-0.4,1.5-0.9,2.3-1.4
	c1.3-0.8,2.6-1.6,3.8-2.4c1.1-0.7,2.3-1.2,3.5-1.8c1.8-0.8,3.6-1.6,5.3-2.5c1.3-0.6,2.5-1.3,3.8-2C107.3,37.2,108.4,36.6,109.6,36z"
	/>
<path class="st0" d="M59.1,85.6c-0.6,0.7-1.2,1.2-2,1.4c-0.8,0.2-1.5,0.1-2.2-0.2c-0.3-0.2-0.6-0.4-1-0.6c-0.3-0.2-0.5-0.5-0.7-0.8
	c-0.6-1-1.3-1.9-2.2-2.6c-0.3-0.3-0.7-0.5-1-0.6c-0.5-0.2-1-0.2-1.4,0.1c0,0,0,0-0.1,0s-0.1-0.1-0.1-0.2c0-0.4,0-0.8-0.1-1.1
	c-0.1-0.3-0.2-0.5-0.3-0.8c-0.6-1.3-1.7-1.8-3.1-1.8c-0.3,0-0.6,0.1-0.9,0.3c-0.1,0-0.1,0.1-0.2,0.1c0-0.1-0.1-0.2-0.1-0.3
	c-0.3-0.8-0.9-1.5-1.6-2c-0.8-0.5-1.6-0.6-2.4-0.3c0,0,0,0-0.1,0c-0.5-0.3-1-0.6-1.5-0.9c-1-0.6-1.9-1.4-2.7-2.2
	c-0.7-0.7-1.4-1.5-1.9-2.4c-0.1-0.1-0.2-0.3-0.2-0.4c-0.1-0.3-0.2-0.5-0.5-0.7c0-0.1,0.1-0.2,0.1-0.3c0.7-1.9,1.2-3.8,1.6-5.7
	c0.6-2.7,1.2-5.4,1.7-8.1c0.2-0.8,0.3-1.7,0.5-2.5c0-0.1,0-0.1,0-0.2c0.1,0,0.1,0,0.2,0c0.2,0.1,0.4,0.1,0.5,0.2
	c0.7,0.3,1.4,0.4,2.2,0.5c0.6,0.1,1.2,0.2,1.8,0.3h0.1c0,0.1,0,0.2,0,0.3c-0.1,0.5,0,1,0.1,1.5c0.3,1,0.9,1.6,1.9,2
	c0.6,0.2,1.2,0.4,1.8,0.5c0.9,0.1,1.8,0.2,2.7,0.1c1.2-0.1,2.4-0.4,3.4-1.2c0.1-0.1,0.2-0.1,0.3-0.1c1.5,0.4,2.9,0.8,4.3,1.4
	c0.7,0.3,1.3,0.6,1.9,1.1c0.9,0.8,1.8,1.6,2.7,2.4c0.6,0.7,1.3,1.3,1.8,2.1c0.1,0.2,0.3,0.4,0.5,0.6c1.3,1.4,2.6,2.7,3.9,4.1
	c1,1,1.8,2.1,2.6,3.3c0.7,0.9,1.3,1.8,2.1,2.7c0.7,0.8,1.2,1.7,1.6,2.6c0.4,0.8,0.7,1.6,0.7,2.5c0,0.4,0,0.9-0.1,1.3
	c-0.2,0.7-0.7,1.2-1.3,1.4c-0.1,0.1-0.3,0.1-0.4,0c-1-0.1-1.8-0.4-2.5-1c-0.1-0.1-0.1-0.1-0.1-0.2c-0.5-1.6-1.4-3-2.5-4.2
	c-0.6-0.7-1.4-1.4-2.1-2c-1-1-2-2-2.9-3c-1-1.2-1.9-2.5-2.6-3.8c0-0.1-0.1-0.1-0.1-0.2c-0.2,0-0.3-0.1-0.4,0c-0.1,0-0.2,0.2-0.1,0.3
	c0,0.1,0.1,0.1,0.1,0.2c0.8,1.5,1.7,3,2.9,4.2c1.1,1.3,2.4,2.5,3.6,3.6s2.3,2.4,3,3.9c0.2,0.3,0.3,0.7,0.4,1.1
	c0.1,0.2,0.1,0.4,0.1,0.7c-0.1,0.5-0.2,0.9-0.5,1.3c-0.4,0.7-1,0.9-1.8,0.8c-0.6-0.1-1.1-0.3-1.6-0.6c-0.1,0-0.1-0.1-0.2-0.2
	c-1-0.9-2.1-1.8-3.1-2.7c-0.4-0.4-0.8-0.8-1.2-1.2c-1.5-1.6-3.1-3.1-4.8-4.4c-0.2-0.2-0.4-0.3-0.6-0.4c-0.1,0-0.1-0.1-0.2-0.1
	c-0.1,0-0.2,0-0.3,0.1s0,0.2,0,0.3l0.1,0.1c1.3,0.9,2.4,1.9,3.6,3c0.8,0.8,1.6,1.6,2.4,2.4c0.6,0.6,1.2,1.2,1.9,1.7
	c0.6,0.5,1.2,1,1.8,1.6c0.1,0,0.1,0.1,0.2,0.2c-0.1,0.2-0.2,0.4-0.3,0.6c-0.3,0.5-0.6,1-1,1.3c-0.6,0.6-1.3,0.7-2.1,0.4
	c-0.3-0.1-0.7-0.3-0.9-0.6c-0.2-0.2-0.4-0.3-0.7-0.5c-1.6-1.2-3.2-2.4-4.9-3.6c-1.1-0.8-2.2-1.5-3.4-2c-0.1,0-0.2-0.1-0.3-0.1
	s-0.2,0-0.3,0.1s0,0.3,0.1,0.3l0.1,0.1c1.4,0.6,2.6,1.4,3.8,2.3c1.4,1.1,2.8,2.1,4.2,3.1C58.9,85.4,59,85.5,59.1,85.6z"/>
<path class="st1" d="M73.9,58.5c0.3,0.5,0.5,0.9,0.8,1.4c1.1,1.8,2,3.7,2.9,5.6c1.2,2.4,2.4,4.8,3.7,7.2c0,0.1,0.1,0.1,0.1,0.2
	c-0.3,0.2-0.5,0.4-0.8,0.5c-1.4,0.9-2.9,1.6-4.4,2.3c-0.5,0.2-1,0.5-1.4,0.7S74,76.8,73.6,77c0-0.1-0.1-0.1-0.1-0.2
	c-0.6-1-1.2-2-2-2.9c-0.6-0.7-1.1-1.4-1.6-2.1c-1.1-1.5-2.3-3-3.6-4.3c-1-1-2-2.1-3-3.2c-0.1-0.1-0.1-0.1-0.2-0.2
	c-0.6-1-1.3-1.8-2.2-2.6c-0.7-0.7-1.5-1.3-2.3-2c-0.9-0.8-1.9-1.3-3.1-1.8c-1.2-0.5-2.5-0.8-3.8-1.2c-0.2,0-0.3,0-0.5,0.1
	c-0.8,0.6-1.7,0.9-2.6,1.1c-1.5,0.3-3.1,0.1-4.6-0.3c-0.4-0.1-0.8-0.3-1.1-0.5c-0.7-0.5-0.9-1.2-0.9-2c0-0.2,0-0.5,0.1-0.7
	c0-0.1,0-0.2,0.1-0.4c0.4,0,0.7,0,1,0c0.9,0,1.8-0.1,2.7-0.1c0.6,0,1.2-0.2,1.7-0.5c0.3-0.2,0.6-0.4,0.9-0.6
	c0.1-0.1,0.2-0.1,0.3-0.2c0.8-0.6,1.7-0.8,2.7-0.8c0.8,0,1.6,0.1,2.4,0.3c1.1,0.3,2.2,0.6,3.3,0.8c1.5,0.4,3,0.8,4.4,1.5
	c1.6,0.7,3,1.6,4.2,2.8c0.8,0.8,1.7,1.5,2.8,1.9c0.8,0.3,1.6,0.5,2.4,0.5c0.9,0,1.7-0.3,2.5-0.8C73.7,58.5,73.8,58.5,73.9,58.5
	C73.8,58.5,73.8,58.5,73.9,58.5z"/>
<path class="st1" d="M73.4,56.6c0.7-0.4,1.4-0.8,2.1-1.2c0.1,0.1,0.1,0.1,0.1,0.2c0.9,1.3,1.7,2.7,2.4,4.1c0.6,1.3,1.3,2.5,1.9,3.8
	c0.5,0.9,0.9,1.9,1.4,2.9c1.2,2.3,2.4,4.6,3.6,6.8c0,0.1,0.1,0.2,0.1,0.3c-0.7,0.4-1.3,0.8-2,1.3c-0.2-0.2-0.3-0.5-0.4-0.7
	c-1.2-2-2.3-4.1-3.3-6.1c-0.9-1.8-1.8-3.7-2.7-5.5c-1-1.9-2-3.7-3.2-5.6C73.5,56.8,73.4,56.7,73.4,56.6z"/>
<path class="st1" d="M47.3,84.6c-0.9,0.1-1.7,0-2.5-0.3c-0.9-0.3-1.5-0.9-1.7-1.8c0-0.2-0.1-0.3,0-0.4c0.2-0.7,0.4-1.4,0.6-2.1
	c0.2-0.6,0.6-0.9,1.1-1c0.2,0,0.4,0,0.6,0c1.4,0.2,2.3,1.1,2.5,2.6c0.1,0.9-0.1,1.8-0.4,2.6C47.4,84.3,47.4,84.4,47.3,84.6z"/>
<path class="st1" d="M42.5,82c-0.4,0-0.8,0-1.2-0.1c-0.3-0.1-0.6-0.2-0.8-0.3c-1.1-0.5-1.7-1.5-1.8-2.7c-0.1-1.3,0.8-2.2,2-2.3
	c0.3,0,0.7,0.1,1,0.2c0.9,0.4,1.5,1.1,1.7,2.1c0,0.1,0,0.2,0,0.3c-0.2,0.9-0.5,1.8-0.7,2.6C42.6,81.9,42.6,82,42.5,82z"/>
<path class="st1" d="M53.1,86.2c-0.3,0.2-0.6,0.5-1,0.7c-0.3,0.2-0.7,0.2-1.1,0.2c-1.2-0.2-2.1-0.8-2.6-2c-0.4-0.8-0.1-1.7,0.5-2.3
	c0.2-0.2,0.5-0.3,0.9-0.2c0.2,0.1,0.5,0.2,0.7,0.4c0.5,0.3,0.8,0.7,1.2,1.1c0.5,0.6,1,1.2,1.4,1.9C53,86,53,86.1,53.1,86.2z"/>
<path class="st1" d="M38,78.5c-1.1-0.1-2.1-0.4-2.7-1.4c-0.3-0.5-0.3-1,0-1.6c0.2-0.3,0.4-0.6,0.8-0.8c0.1,0,0.2-0.1,0.2,0
	c0.9,0.6,1.8,1.1,2.7,1.7C38.5,77.1,38.2,77.8,38,78.5z"/>
<path class="st0" d="M21.8,68.2c-0.9,0-1.8-0.8-1.8-1.8c0-0.9,0.7-1.8,1.9-1.8c1,0,1.8,0.9,1.8,1.9C23.6,67.5,22.8,68.2,21.8,68.2z"
	/>
<path class="st0" d="M27.6,70.3c-0.9,0-1.8-0.8-1.8-1.9c0-1,0.9-1.8,1.9-1.7c0.9,0,1.8,0.7,1.7,1.8C29.4,69.8,28.4,70.4,27.6,70.3z"
	/>
<path class="st0" d="M24.3,74.5c-0.5-0.2-1-0.4-1.5-0.6c-1.2-0.5-2.4-0.9-3.6-1.4c-0.7-0.3-1.4-0.6-2.1-0.9
	c-0.3-0.1-0.5-0.2-0.8-0.4L3,65.3v47.5h10.8c8.9,0,16.2-1.3,16.2-10.2V76.8c-1.3-0.5-2.7-1-4-1.5C25.4,75,24.9,74.8,24.3,74.5z"/>
<path class="st0" d="M107.8,68c-2,1-4.1,2.1-6.1,3.1c-0.6,0.3-1.2,0.7-1.8,1c-0.3,0.2-0.5,0.3-0.8,0.5L84.7,81
	c-0.1,0-0.1,0.1-0.2,0.1L82.7,82l-0.2,0.1v20.3c0,8.9,7.2,10.2,16.2,10.2h10.8V67.1C109,67.4,108.4,67.7,107.8,68z"/>
<g>
	<polygon class="st1" points="37.4,16.3 37.4,32.7 32.1,32.7 32.1,18.9 	"/>
	<polygon class="st1" points="28,20.9 28,32.7 22.6,32.7 22.6,23.5 	"/>
	<polygon class="st1" points="18.6,25.5 18.6,32.7 13.2,32.7 13.2,28.1 	"/>
	<polygon class="st1" points="46.9,11.8 46.9,32.7 41.5,32.7 41.5,14.4 	"/>
	<polygon class="st1" points="56.3,7.2 56.3,32.7 50.9,32.7 50.9,9.8 	"/>
	<polygon class="st1" points="9.3,33 3,33 9.3,30 	"/>
	<polygon class="st1" points="75.1,16.3 75.1,32.7 80.5,32.7 80.5,18.9 	"/>
	<polygon class="st1" points="84.6,20.9 84.6,32.7 89.9,32.7 89.9,23.5 	"/>
	<polygon class="st1" points="94,25.5 94,32.7 99.4,32.7 99.4,28.1 	"/>
	<polygon class="st1" points="65.7,11.8 65.7,32.7 71.1,32.7 71.1,14.4 	"/>
	<polygon class="st1" points="56.3,7.2 56.3,32.7 61.7,32.7 61.7,9.8 	"/>
	<polygon class="st1" points="103.3,33 109.6,33 103.3,30 	"/>
</g>
</svg>
