<svg id="Layer_1" data-name="Layer 1" xmlns="http://www.w3.org/2000/svg" viewBox="0 0 200 60"><defs><style>.cls-1{fill:#002140;}.cls-2{fill:#1f2123;}.cls-3{fill:#1591a3;}</style></defs><title>Artboard 1</title><path class="cls-1" d="M89.92,39H86V26.24L79.07,38.4a1.7,1.7,0,0,1-.71.71,2.09,2.09,0,0,1-1,.24,2,2,0,0,1-1-.24,1.72,1.72,0,0,1-.7-.71L68.78,26.24V39h-3.9V19.2a2,2,0,0,1,1.44-1.91,2.07,2.07,0,0,1,.63-.05,2.1,2.1,0,0,1,.61.14,1.83,1.83,0,0,1,.94.8l8.88,15.44,8.88-15.44a1.91,1.91,0,0,1,1-.81,2,2,0,0,1,1.27-.08,2,2,0,0,1,1,.71,1.91,1.91,0,0,1,.41,1.2Z"/><path class="cls-1" d="M115.53,37.08a2,2,0,0,1-.15.78,1.85,1.85,0,0,1-.42.62,2,2,0,0,1-.63.41,2,2,0,0,1-.77.15h-8.79a12.14,12.14,0,0,1-2.52-.27,11.21,11.21,0,0,1-2.47-.83,10.58,10.58,0,0,1-2.24-1.43,9.34,9.34,0,0,1-1.84-2.06,10,10,0,0,1-1.24-2.73A12.18,12.18,0,0,1,94,28.29V17.54h3.9V28.29a7.5,7.5,0,0,0,.46,2.79A6.16,6.16,0,0,0,99.53,33a5.61,5.61,0,0,0,1.55,1.2,8.33,8.33,0,0,0,1.6.65,7.67,7.67,0,0,0,1.34.26l.76.05h6.86V17.54h3.9Z"/><path class="cls-1" d="M124,39h-3.9V17.54H124Z"/><path class="cls-1" d="M149.22,32.72a6.86,6.86,0,0,1-.29,2.08,6.2,6.2,0,0,1-.77,1.63,5.16,5.16,0,0,1-1.13,1.2,6.9,6.9,0,0,1-1.34.81,6.68,6.68,0,0,1-1.4.47,6.52,6.52,0,0,1-1.34.15h-15v-3.9h15a2.29,2.29,0,0,0,1.75-.66,2.48,2.48,0,0,0,.62-1.77,2.86,2.86,0,0,0-.16-1,2.29,2.29,0,0,0-.47-.78,2.08,2.08,0,0,0-.75-.51,2.59,2.59,0,0,0-1-.18h-9a7,7,0,0,1-2-.34,6.11,6.11,0,0,1-2-1.09,5.93,5.93,0,0,1-1.56-2,6.46,6.46,0,0,1-.62-3,6.41,6.41,0,0,1,.62-3,6,6,0,0,1,3.59-3.06,7,7,0,0,1,2-.34h13.28v3.9H134a2.24,2.24,0,0,0-1.73.68,2.53,2.53,0,0,0-.62,1.79,2.47,2.47,0,0,0,.62,1.78,2.28,2.28,0,0,0,1.73.65h9a6.9,6.9,0,0,1,1.34.17,6.7,6.7,0,0,1,1.4.49,6.77,6.77,0,0,1,1.33.83A5.63,5.63,0,0,1,148.16,29a5.93,5.93,0,0,1,.77,1.62A7,7,0,0,1,149.22,32.72Z"/><path class="cls-1" d="M173.13,32.72a6.86,6.86,0,0,1-.29,2.08,6.2,6.2,0,0,1-.77,1.63,5.16,5.16,0,0,1-1.13,1.2,6.9,6.9,0,0,1-1.34.81,6.68,6.68,0,0,1-1.4.47,6.52,6.52,0,0,1-1.34.15h-15v-3.9h15a2.29,2.29,0,0,0,1.75-.66,2.48,2.48,0,0,0,.62-1.77,2.86,2.86,0,0,0-.16-1,2.29,2.29,0,0,0-.47-.78,2.08,2.08,0,0,0-.75-.51,2.59,2.59,0,0,0-1-.18h-9a7,7,0,0,1-2-.34,6.11,6.11,0,0,1-2-1.09,5.93,5.93,0,0,1-1.56-2,6.46,6.46,0,0,1-.62-3,6.41,6.41,0,0,1,.62-3,6,6,0,0,1,3.59-3.06,7,7,0,0,1,2-.34h13.28v3.9H157.89a2.24,2.24,0,0,0-1.73.68,2.53,2.53,0,0,0-.62,1.79,2.47,2.47,0,0,0,.62,1.78,2.28,2.28,0,0,0,1.73.65h9a6.9,6.9,0,0,1,1.34.17,6.7,6.7,0,0,1,1.4.49,6.77,6.77,0,0,1,1.33.83A5.63,5.63,0,0,1,172.07,29a5.93,5.93,0,0,1,.77,1.62A7,7,0,0,1,173.13,32.72Z"/><path class="cls-1" d="M197.48,39h-3.9V33.77H179.87V39H176V28.29a11.34,11.34,0,0,1,.81-4.34A10.12,10.12,0,0,1,179,20.55a10.25,10.25,0,0,1,3.41-2.22,11.33,11.33,0,0,1,4.29-.8h8.79a2,2,0,0,1,.77.15,1.93,1.93,0,0,1,1.05,1.05,2,2,0,0,1,.15.77Zm-17.61-9.18h13.71V21.44h-6.86l-.76.05a7.72,7.72,0,0,0-1.34.26,8.37,8.37,0,0,0-1.6.65,5.61,5.61,0,0,0-1.55,1.2,6.14,6.14,0,0,0-1.16,1.91,7.52,7.52,0,0,0-.46,2.78Z"/><path d="M64.93,53.39V45.83h5v.85h-4V49.2h3.4V50h-3.4v3.38Z"/><path d="M74.06,53.44a3.24,3.24,0,0,1-1.45-.32,3.52,3.52,0,0,1-1.12-.87,4.07,4.07,0,0,1-1-2.65,3.89,3.89,0,0,1,.27-1.44,4,4,0,0,1,.76-1.22,3.65,3.65,0,0,1,1.13-.85,3.21,3.21,0,0,1,1.42-.31,3.15,3.15,0,0,1,1.45.33,3.57,3.57,0,0,1,1.12.88,4.16,4.16,0,0,1,.72,1.23,4,4,0,0,1-.76,4.06,3.58,3.58,0,0,1-1.13.85A3.25,3.25,0,0,1,74.06,53.44Zm-2.59-3.83a3.37,3.37,0,0,0,.19,1.11,3.07,3.07,0,0,0,.53,1,2.55,2.55,0,0,0,.82.66,2.3,2.3,0,0,0,1.06.24,2.27,2.27,0,0,0,1.09-.26,2.56,2.56,0,0,0,.81-.68,3.11,3.11,0,0,0,.51-1,3.41,3.41,0,0,0,.18-1.08,3.33,3.33,0,0,0-.19-1.11,3.1,3.1,0,0,0-.53-1,2.53,2.53,0,0,0-.82-.66,2.45,2.45,0,0,0-2.13,0,2.5,2.5,0,0,0-.81.68,3.22,3.22,0,0,0-.52,1A3.3,3.3,0,0,0,71.47,49.61Z"/><path d="M79,53.39V45.83h3.24a2,2,0,0,1,.92.21,2.4,2.4,0,0,1,.72.55,2.59,2.59,0,0,1,.48.78,2.37,2.37,0,0,1,.17.88,2.53,2.53,0,0,1-.2,1,2.27,2.27,0,0,1-.55.8,2,2,0,0,1-.84.46l1.83,2.9H83.64l-1.72-2.71h-2v2.71Zm1-3.57H82.2a1.12,1.12,0,0,0,.69-.22,1.47,1.47,0,0,0,.46-.58,1.85,1.85,0,0,0,.16-.78,1.63,1.63,0,0,0-.19-.78,1.6,1.6,0,0,0-.5-.57,1.17,1.17,0,0,0-.68-.21H79.91Z"/><path d="M88.55,45.83l2.29,3.94,2.31-3.94h1l-2.87,4.8v2.76h-1V50.61l-2.86-4.78Z"/><path d="M97.81,53.44a3.24,3.24,0,0,1-1.45-.32,3.52,3.52,0,0,1-1.12-.87,4.07,4.07,0,0,1-1-2.65,3.89,3.89,0,0,1,.27-1.44,4,4,0,0,1,.76-1.22,3.65,3.65,0,0,1,1.13-.85,3.21,3.21,0,0,1,1.42-.31,3.15,3.15,0,0,1,1.45.33,3.57,3.57,0,0,1,1.12.88,4.16,4.16,0,0,1,.72,1.23,4,4,0,0,1-.76,4.06,3.58,3.58,0,0,1-1.13.85A3.25,3.25,0,0,1,97.81,53.44Zm-2.59-3.83a3.37,3.37,0,0,0,.19,1.11,3.07,3.07,0,0,0,.53,1,2.55,2.55,0,0,0,.82.66,2.3,2.3,0,0,0,1.06.24,2.27,2.27,0,0,0,1.09-.26,2.56,2.56,0,0,0,.81-.68,3.11,3.11,0,0,0,.51-1,3.41,3.41,0,0,0,.18-1.08,3.33,3.33,0,0,0-.19-1.11,3.1,3.1,0,0,0-.53-1,2.54,2.54,0,0,0-.82-.66,2.45,2.45,0,0,0-2.13,0,2.5,2.5,0,0,0-.81.68,3.22,3.22,0,0,0-.52,1A3.3,3.3,0,0,0,95.22,49.61Z"/><path d="M105.82,53.44a3.33,3.33,0,0,1-1.52-.31,2.63,2.63,0,0,1-1-.85,3.68,3.68,0,0,1-.54-1.22,5.76,5.76,0,0,1-.17-1.4V45.83h1v3.82a5.19,5.19,0,0,0,.11,1.08,3,3,0,0,0,.37.94,1.87,1.87,0,0,0,.69.66,2.53,2.53,0,0,0,2.18,0,1.9,1.9,0,0,0,.69-.67,3,3,0,0,0,.37-.94,5.06,5.06,0,0,0,.11-1.06V45.83h1v3.82a5.84,5.84,0,0,1-.18,1.45,3.47,3.47,0,0,1-.56,1.21,2.7,2.7,0,0,1-1,.82A3.32,3.32,0,0,1,105.82,53.44Z"/><path d="M110.74,53.39V45.83H114a2,2,0,0,1,.92.21,2.4,2.4,0,0,1,.72.55,2.59,2.59,0,0,1,.48.78,2.37,2.37,0,0,1,.17.88,2.53,2.53,0,0,1-.2,1,2.27,2.27,0,0,1-.55.8,2,2,0,0,1-.84.46l1.83,2.9h-1.09l-1.72-2.71h-2v2.71Zm1-3.57H114a1.12,1.12,0,0,0,.69-.22,1.47,1.47,0,0,0,.46-.58,1.85,1.85,0,0,0,.17-.78,1.63,1.63,0,0,0-.19-.78,1.6,1.6,0,0,0-.5-.57,1.17,1.17,0,0,0-.68-.21H111.7Z"/><path d="M126.23,51.44a1.77,1.77,0,0,1-.3,1,2,2,0,0,1-.8.68,2.52,2.52,0,0,1-1.11.24h-3.59V45.83h3.76a1.53,1.53,0,0,1,.92.28,1.85,1.85,0,0,1,.6.72,2.14,2.14,0,0,1,.21.92,2,2,0,0,1-.28,1,1.72,1.72,0,0,1-.8.72,1.9,1.9,0,0,1,1,.71A2,2,0,0,1,126.23,51.44Zm-4.84-4.78v2.52h2.41a1.07,1.07,0,0,0,.6-.17,1.23,1.23,0,0,0,.42-.46,1.31,1.31,0,0,0,.15-.63,1.4,1.4,0,0,0-.14-.64,1.19,1.19,0,0,0-.39-.45,1,1,0,0,0-.57-.17Zm3.87,4.61a1.39,1.39,0,0,0-.15-.65,1.3,1.3,0,0,0-.42-.48,1,1,0,0,0-.6-.18h-2.7v2.6H124a1.15,1.15,0,0,0,.63-.18,1.33,1.33,0,0,0,.45-.47A1.27,1.27,0,0,0,125.26,51.27Z"/><path d="M130.69,53.44a3.33,3.33,0,0,1-1.52-.31,2.63,2.63,0,0,1-1-.85,3.68,3.68,0,0,1-.54-1.22,5.76,5.76,0,0,1-.17-1.4V45.83h1v3.82a5.19,5.19,0,0,0,.11,1.08,3,3,0,0,0,.37.94,1.87,1.87,0,0,0,.69.66,2.53,2.53,0,0,0,2.18,0,1.9,1.9,0,0,0,.69-.67,3,3,0,0,0,.37-.94,5.06,5.06,0,0,0,.11-1.06V45.83h1v3.82a5.84,5.84,0,0,1-.18,1.45,3.47,3.47,0,0,1-.56,1.21,2.7,2.7,0,0,1-1,.82A3.32,3.32,0,0,1,130.69,53.44Z"/><path d="M140,47.42a1.58,1.58,0,0,0-.34-.29,3,3,0,0,0-.48-.25,3.38,3.38,0,0,0-.58-.18,3,3,0,0,0-.65-.07,2.06,2.06,0,0,0-1.29.33,1.09,1.09,0,0,0-.42.9.91.91,0,0,0,.21.64,1.53,1.53,0,0,0,.65.38q.44.15,1.12.31a7.63,7.63,0,0,1,1.36.41,2.11,2.11,0,0,1,.88.65,1.76,1.76,0,0,1,.31,1.09,2,2,0,0,1-.21.94,1.82,1.82,0,0,1-.58.66,2.58,2.58,0,0,1-.87.38,4.59,4.59,0,0,1-1.09.12,5.14,5.14,0,0,1-1.12-.12,4.83,4.83,0,0,1-1-.36,4.44,4.44,0,0,1-.92-.59l.46-.81a2.37,2.37,0,0,0,.44.36,4.24,4.24,0,0,0,1.37.56,3.79,3.79,0,0,0,.83.09,2.29,2.29,0,0,0,1.26-.29,1,1,0,0,0,.45-.85.93.93,0,0,0-.25-.68,1.89,1.89,0,0,0-.74-.42q-.49-.17-1.19-.34a8.21,8.21,0,0,1-1.29-.42,1.81,1.81,0,0,1-.78-.6,1.64,1.64,0,0,1-.26-1,2.07,2.07,0,0,1,.35-1.22,2.16,2.16,0,0,1,1-.75,3.63,3.63,0,0,1,1.39-.25,4.06,4.06,0,0,1,1,.11,3.86,3.86,0,0,1,.82.3,3.63,3.63,0,0,1,.7.46Z"/><path d="M142.09,53.39V45.83h1v7.56Z"/><path d="M145.81,47.6v5.79h-1V45.83h.81l4.62,5.91v-5.9h1v7.55h-.87Z"/><path d="M158.18,52.54v.85H153V45.83h5v.85H154v2.45h3.54v.8H154v2.61Z"/><path d="M163.93,47.42a1.58,1.58,0,0,0-.34-.29,3,3,0,0,0-.48-.25,3.38,3.38,0,0,0-.58-.18,3,3,0,0,0-.65-.07,2.06,2.06,0,0,0-1.29.33,1.09,1.09,0,0,0-.42.9.91.91,0,0,0,.21.64,1.53,1.53,0,0,0,.65.38q.44.15,1.12.31a7.63,7.63,0,0,1,1.36.41,2.11,2.11,0,0,1,.88.65,1.76,1.76,0,0,1,.31,1.09,2,2,0,0,1-.21.94,1.82,1.82,0,0,1-.58.66,2.58,2.58,0,0,1-.87.38,4.59,4.59,0,0,1-1.09.12,5.14,5.14,0,0,1-1.12-.12,4.83,4.83,0,0,1-1-.36,4.44,4.44,0,0,1-.92-.59l.46-.81a2.37,2.37,0,0,0,.44.36,4.24,4.24,0,0,0,1.37.56,3.79,3.79,0,0,0,.83.09,2.29,2.29,0,0,0,1.26-.29,1,1,0,0,0,.45-.85.93.93,0,0,0-.25-.68,1.89,1.89,0,0,0-.74-.42q-.49-.17-1.19-.34a8.21,8.21,0,0,1-1.29-.42,1.81,1.81,0,0,1-.78-.6,1.64,1.64,0,0,1-.26-1,2.07,2.07,0,0,1,.35-1.22,2.16,2.16,0,0,1,1-.75,3.63,3.63,0,0,1,1.39-.25,4.06,4.06,0,0,1,1,.11,3.86,3.86,0,0,1,.82.3,3.63,3.63,0,0,1,.7.46Z"/><path d="M170.41,47.42a1.58,1.58,0,0,0-.34-.29,3,3,0,0,0-.48-.25,3.38,3.38,0,0,0-.58-.18,3,3,0,0,0-.65-.07,2.06,2.06,0,0,0-1.29.33,1.09,1.09,0,0,0-.42.9.91.91,0,0,0,.21.64,1.53,1.53,0,0,0,.65.38q.44.15,1.12.31a7.63,7.63,0,0,1,1.36.41,2.11,2.11,0,0,1,.88.65,1.76,1.76,0,0,1,.31,1.09,2,2,0,0,1-.21.94,1.82,1.82,0,0,1-.58.66,2.58,2.58,0,0,1-.87.38,4.59,4.59,0,0,1-1.09.12,5.14,5.14,0,0,1-1.12-.12,4.83,4.83,0,0,1-1-.36,4.44,4.44,0,0,1-.92-.59l.46-.81a2.37,2.37,0,0,0,.44.36,4.24,4.24,0,0,0,1.37.56,3.79,3.79,0,0,0,.83.09,2.29,2.29,0,0,0,1.26-.29,1,1,0,0,0,.45-.85.93.93,0,0,0-.25-.68,1.89,1.89,0,0,0-.74-.42q-.49-.17-1.19-.34a8.21,8.21,0,0,1-1.29-.42,1.81,1.81,0,0,1-.78-.6,1.64,1.64,0,0,1-.26-1,2.07,2.07,0,0,1,.35-1.22,2.16,2.16,0,0,1,1-.75,3.63,3.63,0,0,1,1.39-.25,4.06,4.06,0,0,1,1,.11,3.86,3.86,0,0,1,.82.3,3.63,3.63,0,0,1,.7.46Z"/><path class="cls-2" d="M18.74,24.39a58.68,58.68,0,0,0-6-2.43c-1-.37-2.08-.75-3.11-1.15A28.3,28.3,0,0,1,5.83,19a11.54,11.54,0,0,0-2.45-1,8.55,8.55,0,0,1-.86-.3V30.44L6.3,32.13c.46.21.92.43,1.39.62.83.33,1.67.65,2.5,1s1.9.75,2.86,1.1,2,.72,3.07,1.08l.1,0,.29-.85c.11-.31.2-.62.32-.92s.33-.82.47-1.25a40.59,40.59,0,0,0,1-4c.21-1,.4-2.06.6-3.1.08-.4.14-.8.21-1.21Zm-6.9,9a1.16,1.16,0,1,1,0-2.33,1.16,1.16,0,0,1,0,2.33Zm2.87,1a1.16,1.16,0,1,1,1.17-1.13A1.16,1.16,0,0,1,14.71,34.38Z"/><path class="cls-3" d="M55.26,17.1V31l-2.39,1.22c-.45.23-.88.5-1.32.76l-7.11,4.13-.11.06-.36-.6c-.93-1.58-1.81-3.19-2.61-4.84-.59-1.23-1.22-2.44-1.85-3.65-.24-.46-.52-.89-.8-1.32-.11-.17-.21-.35-.31-.52l-.07-.14.2-.1c1.93-1,3.85-2,5.79-2.92.39-.19.76-.44,1.13-.67.64-.39,1.26-.8,1.9-1.19a18.82,18.82,0,0,1,1.71-.88c.88-.41,1.77-.82,2.65-1.25.63-.31,1.24-.67,1.86-1Z"/><path class="cls-2" d="M30.29,41.66a2.12,2.12,0,0,1-1,.71,1.38,1.38,0,0,1-1.1-.11,4.6,4.6,0,0,1-.47-.32,1.29,1.29,0,0,1-.36-.4,4.9,4.9,0,0,0-1.1-1.3,1.56,1.56,0,0,0-.52-.29.69.69,0,0,0-.65.09l0,0C25,40.06,25,40,25,40a1.94,1.94,0,0,0-.06-.55,2.29,2.29,0,0,0-.14-.39,1.59,1.59,0,0,0-1.53-.91.91.91,0,0,0-.44.13l-.09.05,0-.12a2,2,0,0,0-.8-1,1.3,1.3,0,0,0-1.19-.14h0L20,36.59a7.66,7.66,0,0,1-1.33-1.09,6,6,0,0,1-1-1.21l-.12-.22a.91.91,0,0,0-.24-.35l0-.12a26.8,26.8,0,0,0,.81-2.81c.32-1.32.59-2.65.84-4l.23-1.25,0-.09.08,0,.26.1a3.74,3.74,0,0,0,1.08.27l.92.13.06,0,0,.17a1.92,1.92,0,0,0,.05.75,1.46,1.46,0,0,0,.92,1,4.15,4.15,0,0,0,.89.23,5.36,5.36,0,0,0,1.34.06,3.43,3.43,0,0,0,1.68-.57.17.17,0,0,1,.15,0,16.09,16.09,0,0,1,2.14.71,3.52,3.52,0,0,1,.93.56c.46.39.91.78,1.34,1.21a7.07,7.07,0,0,1,.88,1,2.34,2.34,0,0,0,.23.3l1.91,2A18.45,18.45,0,0,1,35.38,35c.33.45.66.9,1,1.32a5.39,5.39,0,0,1,.8,1.27,3.54,3.54,0,0,1,.35,1.25,1.72,1.72,0,0,1-.06.63,1.07,1.07,0,0,1-.66.7.5.5,0,0,1-.21,0,2.18,2.18,0,0,1-1.26-.52.25.25,0,0,1-.07-.11,5.82,5.82,0,0,0-1.22-2.1c-.31-.36-.68-.67-1-1A20.73,20.73,0,0,1,31.61,35a9.61,9.61,0,0,1-1.27-1.9.57.57,0,0,0,0-.09.13.13,0,0,0-.16,0,.13.13,0,0,0-.07.15.45.45,0,0,0,0,.1,9.75,9.75,0,0,0,1.43,2.1,25,25,0,0,0,1.79,1.79,6.52,6.52,0,0,1,1.49,2c.08.17.15.35.22.53a.6.6,0,0,1,0,.33,1.87,1.87,0,0,1-.23.67.82.82,0,0,1-.89.4,2.32,2.32,0,0,1-.8-.3l-.1-.08c-.51-.45-1-.89-1.54-1.34-.2-.18-.38-.4-.57-.59a20.78,20.78,0,0,0-2.4-2.18l-.31-.22-.1,0a.11.11,0,0,0-.14.07.13.13,0,0,0,0,.15l0,0a13.08,13.08,0,0,1,1.76,1.47c.4.38.79.78,1.17,1.18s.61.57.92.85l.89.78.08.08-.13.28a2.15,2.15,0,0,1-.49.66,1,1,0,0,1-1,.2,1.25,1.25,0,0,1-.46-.28,2.61,2.61,0,0,0-.32-.25L28,39.65a9,9,0,0,0-1.66-1l-.13-.05a.13.13,0,0,0-.15.06.14.14,0,0,0,0,.17l.07,0A9.33,9.33,0,0,1,28.07,40c.69.52,1.38,1,2.08,1.54Z"/><path class="cls-3" d="M37.58,28.24l.4.7c.52.91,1,1.85,1.44,2.79q.87,1.8,1.84,3.55l0,.09-.39.26a17.87,17.87,0,0,1-2.19,1.14c-.24.11-.48.23-.71.36a4.7,4.7,0,0,1-.6.29l-.06-.11a7.87,7.87,0,0,0-1-1.42c-.28-.33-.54-.68-.8-1a20.6,20.6,0,0,0-1.79-2.13c-.5-.51-1-1-1.47-1.56L32.23,31a6.5,6.5,0,0,0-1.07-1.27c-.36-.35-.75-.67-1.12-1a4.35,4.35,0,0,0-1.51-.87,18.68,18.68,0,0,0-1.87-.58.26.26,0,0,0-.25,0,2.86,2.86,0,0,1-1.29.53,5.07,5.07,0,0,1-2.25-.17,1.58,1.58,0,0,1-.54-.27,1.2,1.2,0,0,1-.46-1,3.06,3.06,0,0,1,0-.37c0-.06,0-.11,0-.18h.51l1.35,0a1.82,1.82,0,0,0,.84-.25l.46-.29.14-.09a2.13,2.13,0,0,1,1.32-.4,4.32,4.32,0,0,1,1.18.17c.53.15,1.08.28,1.62.42a15.15,15.15,0,0,1,2.19.72,6.86,6.86,0,0,1,2.1,1.37,4.7,4.7,0,0,0,1.37.95,2.77,2.77,0,0,0,1.2.26,2.31,2.31,0,0,0,1.24-.39l.09-.05Z"/><path class="cls-3" d="M37.35,27.32l1.06-.58.07.1a17.77,17.77,0,0,1,1.18,2c.32.62.64,1.24,1,1.87.23.47.44,1,.68,1.42.58,1.13,1.17,2.27,1.8,3.37l.07.13-1,.62L42,35.95c-.59-1-1.13-2-1.65-3S39.43,31.1,39,30.2s-1-1.86-1.56-2.76Z"/><path class="cls-3" d="M24.44,41.17A2.63,2.63,0,0,1,23.22,41a1.34,1.34,0,0,1-.86-.89.37.37,0,0,1,0-.22l.3-1a.68.68,0,0,1,.55-.49.76.76,0,0,1,.28,0,1.37,1.37,0,0,1,1.24,1.27,2.61,2.61,0,0,1-.19,1.29Z"/><path class="cls-3" d="M22.08,39.9a2.21,2.21,0,0,1-.61-.07,2.39,2.39,0,0,1-.41-.14,1.51,1.51,0,0,1-.91-1.33,1,1,0,0,1,1-1.12.93.93,0,0,1,.49.1,1.65,1.65,0,0,1,.86,1,.3.3,0,0,1,0,.16c-.12.44-.24.87-.37,1.3Z"/><path class="cls-3" d="M27.3,42c-.17.12-.32.25-.49.35a.83.83,0,0,1-.54.09,1.56,1.56,0,0,1-1.29-1,1,1,0,0,1,.24-1.13.39.39,0,0,1,.42-.09,1.61,1.61,0,0,1,.35.17,2.92,2.92,0,0,1,.59.54,5.61,5.61,0,0,1,.68.95Z"/><path class="cls-3" d="M19.84,38.17a1.49,1.49,0,0,1-1.34-.7.74.74,0,0,1,0-.77.86.86,0,0,1,.4-.39.11.11,0,0,1,.12,0l1.32.85A3,3,0,0,0,19.84,38.17Z"/><path class="cls-2" d="M11.84,33.07a.89.89,0,1,1,.9-.87A.9.9,0,0,1,11.84,33.07Z"/><path class="cls-2" d="M14.7,34.11a.89.89,0,1,1,.91-.87A.88.88,0,0,1,14.7,34.11Z"/><path class="cls-2" d="M13.05,36.2l-.74-.28-1.78-.69c-.36-.14-.7-.3-1-.45l-.39-.18L2.52,31.64V55.13H7.89c4.42,0,8-.62,8-5V37.29l-2-.75Z"/><path class="cls-2" d="M54.38,33l-3,1.55c-.29.15-.58.33-.89.51l-.38.23L43,39.37l-.11.06-.87.46-.08,0V50c0,4.42,3.58,5,8,5h5.36V32.5Z"/><polygon class="cls-3" points="19.57 7.39 19.57 15.5 16.9 15.5 16.9 8.69 19.57 7.39"/><polygon class="cls-3" points="14.9 9.65 14.9 15.5 12.24 15.5 12.24 10.95 14.9 9.65"/><polygon class="cls-3" points="10.24 11.92 10.24 15.5 7.57 15.5 7.57 13.21 10.24 11.92"/><polygon class="cls-3" points="24.23 5.13 24.23 15.5 21.56 15.5 21.56 6.42 24.23 5.13"/><polygon class="cls-3" points="28.89 2.87 28.89 15.5 26.23 15.5 26.23 4.16 28.89 2.87"/><polygon class="cls-3" points="5.64 15.66 2.52 15.66 5.64 14.17 5.64 15.66"/><polygon class="cls-3" points="38.22 7.39 38.22 15.5 40.88 15.5 40.88 8.69 38.22 7.39"/><polygon class="cls-3" points="42.88 9.65 42.88 15.5 45.55 15.5 45.55 10.95 42.88 9.65"/><polygon class="cls-3" points="47.54 11.92 47.54 15.5 50.21 15.5 50.21 13.21 47.54 11.92"/><polygon class="cls-3" points="33.55 5.13 33.55 15.5 36.22 15.5 36.22 6.42 33.55 5.13"/><polygon class="cls-3" points="28.89 2.87 28.89 15.5 31.56 15.5 31.56 4.16 28.89 2.87"/><polygon class="cls-3" points="52.15 15.66 55.26 15.66 52.15 14.17 52.15 15.66"/></svg>