<?xml version="1.0" encoding="utf-8"?>
<!-- Generator: Adobe Illustrator 21.0.2, SVG Export Plug-In . SVG Version: 6.00 Build 0)  -->
<svg version="1.1" id="Layer_1" xmlns="http://www.w3.org/2000/svg" xmlns:xlink="http://www.w3.org/1999/xlink" x="0px" y="0px"
	 viewBox="0 0 200 60" style="enable-background:new 0 0 200 60;" xml:space="preserve">
<style type="text/css">
	.st0{fill:#002140;}
	.st1{fill:#1F2123;}
	.st2{fill:#1591A3;}
</style>
<g>
	<g>
		<path class="st0" d="M89.9,40.1h-4V27.2l-7,12.2c-0.2,0.3-0.4,0.5-0.7,0.7c-0.3,0.2-0.6,0.2-1,0.2c-0.3,0-0.7-0.1-1-0.2
			c-0.3-0.2-0.5-0.4-0.7-0.7l-7-12.2v12.9h-3.9v-20c0-0.5,0.1-0.9,0.4-1.2c0.3-0.4,0.6-0.6,1-0.7c0.2-0.1,0.4-0.1,0.6-0.1
			s0.4,0.1,0.6,0.1c0.2,0.1,0.4,0.2,0.5,0.3c0.2,0.1,0.3,0.3,0.4,0.5L77,34.5L85.9,19c0.2-0.4,0.6-0.7,1-0.8
			c0.4-0.2,0.8-0.2,1.3-0.1c0.4,0.1,0.8,0.4,1,0.7c0.3,0.4,0.4,0.8,0.4,1.2v20.1H89.9z"/>
		<path class="st0" d="M115.6,38.1c0,0.3-0.1,0.5-0.2,0.8c-0.1,0.2-0.2,0.5-0.4,0.6c-0.2,0.2-0.4,0.3-0.6,0.4
			c-0.2,0.1-0.5,0.2-0.8,0.2h-8.8c-0.8,0-1.7-0.1-2.5-0.3c-0.9-0.2-1.7-0.5-2.5-0.8c-0.8-0.4-1.6-0.9-2.3-1.4
			c-0.7-0.6-1.3-1.3-1.8-2.1s-0.9-1.7-1.2-2.7c-0.3-1-0.5-2.2-0.5-3.4V18.5h3.9v10.8c0,1.1,0.2,2,0.5,2.8s0.7,1.4,1.2,1.9
			s1,0.9,1.6,1.2s1.1,0.5,1.6,0.6s1,0.2,1.3,0.3c0.4,0,0.6,0.1,0.8,0.1h6.9V18.5h3.9L115.6,38.1L115.6,38.1z"/>
		<path class="st0" d="M124.1,40.1h-3.9V18.5h3.9V40.1z"/>
		<path class="st0" d="M149.5,33.7c0,0.8-0.1,1.5-0.3,2.1s-0.5,1.2-0.8,1.6c-0.3,0.5-0.7,0.9-1.1,1.2c-0.4,0.3-0.9,0.6-1.3,0.8
			c-0.5,0.2-0.9,0.4-1.4,0.5s-0.9,0.2-1.3,0.2h-15.1v-3.9h15.1c0.8,0,1.3-0.2,1.8-0.7c0.4-0.4,0.6-1,0.6-1.8c0-0.4-0.1-0.7-0.2-1
			c-0.1-0.3-0.3-0.6-0.5-0.8s-0.5-0.4-0.8-0.5s-0.6-0.2-1-0.2h-9c-0.6,0-1.3-0.1-2.1-0.3c-0.7-0.2-1.4-0.6-2-1.1s-1.2-1.2-1.6-2
			c-0.4-0.8-0.6-1.8-0.6-3s0.2-2.2,0.6-3s0.9-1.5,1.6-2c0.6-0.5,1.3-0.9,2-1.1s1.4-0.3,2.1-0.3h13.3v3.9h-13.3
			c-0.7,0-1.3,0.2-1.7,0.7s-0.6,1.1-0.6,1.8c0,0.8,0.2,1.3,0.6,1.8c0.4,0.4,1,0.7,1.7,0.7h9l0,0c0.4,0,0.9,0.1,1.3,0.2
			c0.5,0.1,0.9,0.3,1.4,0.5s0.9,0.5,1.3,0.8c0.4,0.3,0.8,0.7,1.1,1.2s0.6,1,0.8,1.6C149.4,32.3,149.5,33,149.5,33.7z"/>
		<path class="st0" d="M173.5,33.7c0,0.8-0.1,1.5-0.3,2.1s-0.5,1.2-0.8,1.6c-0.3,0.5-0.7,0.9-1.1,1.2c-0.4,0.3-0.9,0.6-1.3,0.8
			c-0.5,0.2-0.9,0.4-1.4,0.5s-0.9,0.2-1.3,0.2h-15.1v-3.9h15.1c0.8,0,1.3-0.2,1.8-0.7c0.4-0.4,0.6-1,0.6-1.8c0-0.4-0.1-0.7-0.2-1
			c-0.1-0.3-0.3-0.6-0.5-0.8s-0.5-0.4-0.8-0.5s-0.6-0.2-1-0.2h-9c-0.6,0-1.3-0.1-2.1-0.3c-0.7-0.2-1.4-0.6-2-1.1s-1.2-1.2-1.6-2
			c-0.4-0.8-0.6-1.8-0.6-3s0.2-2.2,0.6-3c0.4-0.8,0.9-1.5,1.6-2c0.6-0.5,1.3-0.9,2-1.1s1.4-0.3,2.1-0.3h13.3v3.9h-13.3
			c-0.7,0-1.3,0.2-1.7,0.7s-0.6,1.1-0.6,1.8c0,0.8,0.2,1.3,0.6,1.8c0.4,0.4,1,0.7,1.7,0.7h9l0,0c0.4,0,0.9,0.1,1.3,0.2
			c0.5,0.1,0.9,0.3,1.4,0.5s0.9,0.5,1.3,0.8c0.4,0.3,0.8,0.7,1.1,1.2s0.6,1,0.8,1.6C173.4,32.3,173.5,33,173.5,33.7z"/>
		<path class="st0" d="M198,40.1h-3.9v-5.3h-13.8v5.3h-3.9V29.3c0-1.6,0.3-3,0.8-4.4c0.5-1.3,1.3-2.5,2.3-3.4c1-1,2.1-1.7,3.4-2.2
			c1.3-0.5,2.8-0.8,4.3-0.8h8.8c0.3,0,0.5,0.1,0.8,0.2c0.2,0.1,0.5,0.2,0.6,0.4c0.2,0.2,0.3,0.4,0.4,0.6c0.1,0.2,0.2,0.5,0.2,0.8
			L198,40.1L198,40.1z M180.3,30.9h13.8v-8.5h-6.9c-0.1,0-0.4,0-0.8,0.1c-0.4,0-0.8,0.1-1.3,0.3c-0.5,0.1-1,0.4-1.6,0.6
			c-0.6,0.3-1.1,0.7-1.6,1.2s-0.9,1.2-1.2,1.9c-0.3,0.8-0.5,1.7-0.5,2.8v1.6H180.3z"/>
	</g>
	<g>
		<path d="M64.7,54.5v-7.6h5v0.9h-4.1v2.5H69v0.8h-3.4v3.4C65.6,54.5,64.7,54.5,64.7,54.5z"/>
		<path d="M73.9,54.6c-0.5,0-1-0.1-1.5-0.3c-0.4-0.2-0.8-0.5-1.1-0.9c-0.3-0.4-0.6-0.8-0.7-1.2c-0.2-0.5-0.3-0.9-0.3-1.4
			s0.1-1,0.3-1.4c0.2-0.5,0.4-0.9,0.8-1.2c0.3-0.4,0.7-0.6,1.1-0.9c0.4-0.2,0.9-0.3,1.4-0.3s1,0.1,1.5,0.3c0.4,0.2,0.8,0.5,1.1,0.9
			c0.3,0.4,0.6,0.8,0.7,1.2c0.2,0.5,0.3,0.9,0.3,1.4s-0.1,1-0.3,1.5c-0.2,0.5-0.4,0.9-0.8,1.2c-0.3,0.4-0.7,0.6-1.1,0.9
			C74.9,54.5,74.4,54.6,73.9,54.6z M71.3,50.7c0,0.4,0.1,0.8,0.2,1.1c0.1,0.4,0.3,0.7,0.5,1s0.5,0.5,0.8,0.7s0.7,0.2,1.1,0.2
			s0.8-0.1,1.1-0.3c0.3-0.2,0.6-0.4,0.8-0.7c0.2-0.3,0.4-0.6,0.5-1s0.2-0.7,0.2-1.1c0-0.4-0.1-0.8-0.2-1.1c-0.1-0.4-0.3-0.7-0.5-1
			S75.3,48,75,47.8s-0.7-0.2-1.1-0.2s-0.8,0.1-1.1,0.3c-0.3,0.2-0.6,0.4-0.8,0.7c-0.2,0.3-0.4,0.6-0.5,1
			C71.4,50,71.3,50.3,71.3,50.7z"/>
		<path d="M78.8,54.5v-7.6h3.3c0.3,0,0.6,0.1,0.9,0.2c0.3,0.1,0.5,0.3,0.7,0.6c0.2,0.2,0.4,0.5,0.5,0.8s0.2,0.6,0.2,0.9
			c0,0.3-0.1,0.7-0.2,1s-0.3,0.6-0.6,0.8c-0.2,0.2-0.5,0.4-0.8,0.5l1.8,2.9h-1.1l-1.7-2.7h-2v2.7h-1V54.5z M79.8,50.9h2.3
			c0.3,0,0.5-0.1,0.7-0.2c0.2-0.1,0.3-0.3,0.5-0.6c0.1-0.2,0.2-0.5,0.2-0.8s-0.1-0.5-0.2-0.8c-0.1-0.2-0.3-0.4-0.5-0.6
			c-0.2-0.1-0.4-0.2-0.7-0.2h-2.2v3.2H79.8z"/>
		<path d="M88.5,46.9l2.3,4l2.3-4h1l-2.9,4.8v2.8h-1v-2.8l-2.9-4.8H88.5z"/>
		<path d="M97.8,54.6c-0.5,0-1-0.1-1.5-0.3c-0.4-0.2-0.8-0.5-1.1-0.9c-0.3-0.4-0.6-0.8-0.7-1.2c-0.2-0.5-0.3-0.9-0.3-1.4
			s0.1-1,0.3-1.4c0.2-0.5,0.4-0.9,0.8-1.2c0.3-0.4,0.7-0.6,1.1-0.9c0.4-0.2,0.9-0.3,1.4-0.3s1,0.1,1.5,0.3c0.4,0.2,0.8,0.5,1.1,0.9
			c0.3,0.4,0.6,0.8,0.7,1.2c0.2,0.5,0.3,0.9,0.3,1.4s-0.1,1-0.3,1.5c-0.2,0.5-0.4,0.9-0.8,1.2c-0.3,0.4-0.7,0.6-1.1,0.9
			C98.8,54.5,98.3,54.6,97.8,54.6z M95.2,50.7c0,0.4,0.1,0.8,0.2,1.1c0.1,0.4,0.3,0.7,0.5,1s0.5,0.5,0.8,0.7s0.7,0.2,1.1,0.2
			s0.8-0.1,1.1-0.3c0.3-0.2,0.6-0.4,0.8-0.7c0.2-0.3,0.4-0.6,0.5-1s0.2-0.7,0.2-1.1c0-0.4-0.1-0.8-0.2-1.1c-0.1-0.4-0.3-0.7-0.5-1
			s-0.5-0.5-0.8-0.7s-0.7-0.2-1.1-0.2s-0.8,0.1-1.1,0.3c-0.3,0.2-0.6,0.4-0.8,0.7c-0.2,0.3-0.4,0.6-0.5,1
			C95.3,50,95.2,50.3,95.2,50.7z"/>
		<path d="M105.9,54.6c-0.6,0-1.1-0.1-1.5-0.3s-0.7-0.5-1-0.9c-0.2-0.4-0.4-0.8-0.5-1.2c-0.1-0.5-0.2-0.9-0.2-1.4V47h1v3.8
			c0,0.4,0,0.7,0.1,1.1c0.1,0.4,0.2,0.7,0.4,0.9c0.2,0.3,0.4,0.5,0.7,0.7c0.3,0.2,0.7,0.2,1.1,0.2s0.8-0.1,1.1-0.3
			c0.3-0.2,0.5-0.4,0.7-0.7s0.3-0.6,0.4-0.9c0.1-0.3,0.1-0.7,0.1-1.1v-3.8h1v3.8c0,0.5-0.1,1-0.2,1.5s-0.3,0.9-0.6,1.2
			c-0.3,0.3-0.6,0.6-1,0.8C106.9,54.5,106.4,54.6,105.9,54.6z"/>
		<path d="M110.8,54.5v-7.6h3.3c0.3,0,0.6,0.1,0.9,0.2c0.3,0.1,0.5,0.3,0.7,0.6c0.2,0.2,0.4,0.5,0.5,0.8s0.2,0.6,0.2,0.9
			c0,0.3-0.1,0.7-0.2,1s-0.3,0.6-0.6,0.8c-0.2,0.2-0.5,0.4-0.8,0.5l1.8,2.9h-1.1l-1.7-2.7h-2v2.7h-1V54.5z M111.8,50.9h2.3
			c0.3,0,0.5-0.1,0.7-0.2c0.2-0.1,0.3-0.3,0.5-0.6c0.1-0.2,0.2-0.5,0.2-0.8s-0.1-0.5-0.2-0.8c-0.1-0.2-0.3-0.4-0.5-0.6
			c-0.2-0.1-0.4-0.2-0.7-0.2h-2.2v3.2H111.8z"/>
		<path d="M126.4,52.6c0,0.4-0.1,0.7-0.3,1c-0.2,0.3-0.5,0.5-0.8,0.7s-0.7,0.2-1.1,0.2h-3.6v-7.6h3.8c0.4,0,0.7,0.1,0.9,0.3
			c0.3,0.2,0.5,0.4,0.6,0.7s0.2,0.6,0.2,0.9c0,0.4-0.1,0.7-0.3,1c-0.2,0.3-0.5,0.6-0.8,0.7c0.4,0.1,0.8,0.4,1,0.7
			C126.2,51.7,126.4,52.1,126.4,52.6z M121.5,47.8v2.5h2.4c0.2,0,0.4-0.1,0.6-0.2c0.2-0.1,0.3-0.3,0.4-0.5s0.2-0.4,0.2-0.6
			c0-0.2,0-0.5-0.1-0.6c-0.1-0.2-0.2-0.3-0.4-0.5c-0.2-0.1-0.4-0.2-0.6-0.2L121.5,47.8L121.5,47.8z M125.4,52.4
			c0-0.2-0.1-0.5-0.2-0.7s-0.2-0.4-0.4-0.5c-0.2-0.1-0.4-0.2-0.6-0.2h-2.7v2.6h2.6c0.2,0,0.4-0.1,0.6-0.2c0.2-0.1,0.3-0.3,0.4-0.5
			C125.3,52.8,125.4,52.6,125.4,52.4z"/>
		<path d="M130.9,54.6c-0.6,0-1.1-0.1-1.5-0.3s-0.7-0.5-1-0.9c-0.2-0.4-0.4-0.8-0.5-1.2c-0.1-0.5-0.2-0.9-0.2-1.4V47h1v3.8
			c0,0.4,0,0.7,0.1,1.1c0.1,0.4,0.2,0.7,0.4,0.9c0.2,0.3,0.4,0.5,0.7,0.7s0.7,0.2,1.1,0.2c0.4,0,0.8-0.1,1.1-0.3s0.5-0.4,0.7-0.7
			s0.3-0.6,0.4-0.9c0.1-0.3,0.1-0.7,0.1-1.1v-3.8h1v3.8c0,0.5-0.1,1-0.2,1.5s-0.3,0.9-0.6,1.2s-0.6,0.6-1,0.8
			C131.9,54.5,131.4,54.6,130.9,54.6z"/>
		<path d="M140.3,48.5c-0.1-0.1-0.2-0.2-0.3-0.3s-0.3-0.2-0.5-0.3s-0.4-0.1-0.6-0.2c-0.2,0-0.4-0.1-0.7-0.1c-0.6,0-1,0.1-1.3,0.3
			s-0.4,0.5-0.4,0.9c0,0.3,0.1,0.5,0.2,0.6c0.1,0.2,0.4,0.3,0.7,0.4c0.3,0.1,0.7,0.2,1.1,0.3c0.5,0.1,1,0.3,1.4,0.4
			c0.4,0.2,0.7,0.4,0.9,0.7s0.3,0.6,0.3,1.1c0,0.4-0.1,0.7-0.2,0.9c-0.1,0.3-0.3,0.5-0.6,0.7c-0.2,0.2-0.5,0.3-0.9,0.4
			c-0.3,0.1-0.7,0.1-1.1,0.1c-0.4,0-0.8,0-1.1-0.1c-0.4-0.1-0.7-0.2-1-0.4s-0.6-0.4-0.9-0.6l0.5-0.8c0.1,0.1,0.3,0.2,0.4,0.4
			c0.2,0.1,0.4,0.2,0.6,0.3c0.2,0.1,0.5,0.2,0.8,0.2c0.3,0.1,0.5,0.1,0.8,0.1c0.5,0,1-0.1,1.3-0.3s0.4-0.5,0.4-0.9
			c0-0.3-0.1-0.5-0.3-0.7s-0.4-0.3-0.7-0.4c-0.3-0.1-0.7-0.2-1.2-0.3s-0.9-0.3-1.3-0.4c-0.3-0.2-0.6-0.4-0.8-0.6
			c-0.2-0.2-0.3-0.6-0.3-1c0-0.5,0.1-0.9,0.4-1.2c0.2-0.3,0.6-0.6,1-0.8s0.9-0.3,1.4-0.3c0.3,0,0.7,0,1,0.1s0.6,0.2,0.8,0.3
			c0.3,0.1,0.5,0.3,0.7,0.5L140.3,48.5z"/>
		<path d="M142.3,54.5v-7.6h1v7.6H142.3z"/>
		<path d="M146.1,48.7v5.8h-1v-7.6h0.8l4.6,5.9v-5.9h1v7.6h-0.9L146.1,48.7z"/>
		<path d="M158.5,53.7v0.9h-5.2V47h5.1v0.9h-4.1v2.5h3.6V51h-3.6v2.6h4.2V53.7z"/>
		<path d="M164.3,48.5c-0.1-0.1-0.2-0.2-0.3-0.3s-0.3-0.2-0.5-0.3s-0.4-0.1-0.6-0.2c-0.2,0-0.4-0.1-0.7-0.1c-0.6,0-1,0.1-1.3,0.3
			s-0.4,0.5-0.4,0.9c0,0.3,0.1,0.5,0.2,0.6c0.1,0.2,0.4,0.3,0.7,0.4c0.3,0.1,0.7,0.2,1.1,0.3c0.5,0.1,1,0.3,1.4,0.4
			c0.4,0.2,0.7,0.4,0.9,0.7s0.3,0.6,0.3,1.1c0,0.4-0.1,0.7-0.2,0.9c-0.1,0.3-0.3,0.5-0.6,0.7c-0.2,0.2-0.5,0.3-0.9,0.4
			c-0.3,0.1-0.7,0.1-1.1,0.1c-0.4,0-0.8,0-1.1-0.1c-0.4-0.1-0.7-0.2-1-0.4s-0.6-0.4-0.9-0.6l0.5-0.8c0.1,0.1,0.3,0.2,0.4,0.4
			c0.2,0.1,0.4,0.2,0.6,0.3c0.2,0.1,0.5,0.2,0.8,0.2c0.3,0.1,0.5,0.1,0.8,0.1c0.5,0,1-0.1,1.3-0.3s0.4-0.5,0.4-0.9
			c0-0.3-0.1-0.5-0.3-0.7s-0.4-0.3-0.7-0.4c-0.3-0.1-0.7-0.2-1.2-0.3s-0.9-0.3-1.3-0.4c-0.3-0.2-0.6-0.4-0.8-0.6
			c-0.2-0.2-0.3-0.6-0.3-1c0-0.5,0.1-0.9,0.4-1.2c0.2-0.3,0.6-0.6,1-0.8s0.9-0.3,1.4-0.3c0.3,0,0.7,0,1,0.1s0.6,0.2,0.8,0.3
			c0.3,0.1,0.5,0.3,0.7,0.5L164.3,48.5z"/>
		<path d="M170.8,48.5c-0.1-0.1-0.2-0.2-0.3-0.3s-0.3-0.2-0.5-0.3s-0.4-0.1-0.6-0.2c-0.2,0-0.4-0.1-0.7-0.1c-0.6,0-1,0.1-1.3,0.3
			s-0.4,0.5-0.4,0.9c0,0.3,0.1,0.5,0.2,0.6c0.1,0.2,0.4,0.3,0.7,0.4c0.3,0.1,0.7,0.2,1.1,0.3c0.5,0.1,1,0.3,1.4,0.4
			c0.4,0.2,0.7,0.4,0.9,0.7s0.3,0.6,0.3,1.1c0,0.4-0.1,0.7-0.2,0.9c-0.1,0.3-0.3,0.5-0.6,0.7c-0.2,0.2-0.5,0.3-0.9,0.4
			c-0.3,0.1-0.7,0.1-1.1,0.1c-0.4,0-0.8,0-1.1-0.1c-0.4-0.1-0.7-0.2-1-0.4s-0.6-0.4-0.9-0.6l0.5-0.8c0.1,0.1,0.3,0.2,0.4,0.4
			c0.2,0.1,0.4,0.2,0.6,0.3c0.2,0.1,0.5,0.2,0.8,0.2c0.3,0.1,0.5,0.1,0.8,0.1c0.5,0,1-0.1,1.3-0.3s0.4-0.5,0.4-0.9
			c0-0.3-0.1-0.5-0.3-0.7s-0.4-0.3-0.7-0.4c-0.3-0.1-0.7-0.2-1.2-0.3s-0.9-0.3-1.3-0.4c-0.3-0.2-0.6-0.4-0.8-0.6
			c-0.2-0.2-0.3-0.6-0.3-1c0-0.5,0.1-0.9,0.4-1.2c0.2-0.3,0.6-0.6,1-0.8s0.9-0.3,1.4-0.3c0.3,0,0.7,0,1,0.1s0.6,0.2,0.8,0.3
			c0.3,0.1,0.5,0.3,0.7,0.5L170.8,48.5z"/>
	</g>
	<g>
		<path class="st1" d="M18.3,25.4c-1.9-1-4-1.7-6-2.4c-1-0.4-2.1-0.8-3.1-1.2c-1.3-0.5-2.6-1.1-3.8-1.8c-0.8-0.4-1.6-0.8-2.5-1.1
			c-0.3-0.1-0.6-0.2-0.9-0.3v12.8c1.3,0.6,2.5,1.1,3.8,1.7c0.5,0.2,0.9,0.4,1.4,0.6c0.8,0.3,1.7,0.7,2.5,1c1,0.4,1.9,0.8,2.9,1.1
			c1,0.4,2.1,0.7,3.1,1.1h0.1c0.1-0.3,0.2-0.6,0.3-0.9c0.1-0.3,0.2-0.6,0.3-0.9c0.2-0.4,0.3-0.8,0.5-1.3c0.4-1.3,0.7-2.7,1-4
			c0.2-1,0.4-2.1,0.6-3.1c0.1-0.4,0.1-0.8,0.2-1.2C18.6,25.5,18.4,25.4,18.3,25.4z M11.4,34.4c-0.7,0-1.2-0.5-1.2-1.2
			s0.5-1.2,1.2-1.2c0.6,0,1.2,0.6,1.1,1.2C12.5,33.9,12,34.4,11.4,34.4z M14.3,35.4c-0.7,0-1.2-0.5-1.2-1.2s0.5-1.2,1.2-1.2
			c0.6,0,1.2,0.6,1.1,1.2C15.4,34.9,14.9,35.4,14.3,35.4z"/>
		<path class="st2" d="M55,18v14c-0.8,0.4-1.6,0.8-2.4,1.2c-0.5,0.2-0.9,0.5-1.3,0.8c-2.4,1.4-4.8,2.8-7.1,4.2c0,0-0.1,0-0.1,0.1
			c-0.1-0.2-0.2-0.4-0.4-0.6c-0.9-1.6-1.8-3.2-2.6-4.9c-0.6-1.2-1.2-2.5-1.9-3.7c-0.2-0.5-0.5-0.9-0.8-1.3c-0.1-0.2-0.2-0.4-0.3-0.5
			c0,0,0-0.1-0.1-0.1c0.1,0,0.1-0.1,0.2-0.1c1.9-1,3.9-2,5.8-2.9c0.4-0.2,0.8-0.4,1.1-0.7c0.6-0.4,1.3-0.8,1.9-1.2
			c0.6-0.3,1.1-0.6,1.7-0.9c0.9-0.4,1.8-0.8,2.7-1.3c0.6-0.3,1.2-0.7,1.9-1C53.9,18.7,54.5,18.4,55,18z"/>
		<path class="st1" d="M29.9,42.7c-0.3,0.3-0.6,0.6-1,0.7c-0.4,0.1-0.8,0.1-1.1-0.1c-0.2-0.1-0.3-0.2-0.5-0.3s-0.3-0.2-0.4-0.4
			c-0.3-0.5-0.7-0.9-1.1-1.3c-0.2-0.1-0.3-0.2-0.5-0.3s-0.5-0.1-0.7,0.1l0,0c-0.1,0-0.1-0.1-0.1-0.1c0-0.2,0-0.4-0.1-0.6
			c0-0.1-0.1-0.3-0.1-0.4c-0.3-0.6-0.9-0.9-1.5-0.9c-0.2,0-0.3,0.1-0.4,0.1c0,0-0.1,0-0.1,0.1v-0.1c-0.2-0.4-0.4-0.8-0.8-1
			s-0.8-0.3-1.2-0.1l0,0c-0.2-0.2-0.5-0.3-0.7-0.5c-0.5-0.3-0.9-0.7-1.3-1.1c-0.4-0.4-0.7-0.8-1-1.2c0-0.1-0.1-0.1-0.1-0.2
			C17,35,17,34.8,16.9,34.7v-0.1c0.3-0.9,0.6-1.9,0.8-2.8c0.3-1.3,0.6-2.7,0.8-4c0.1-0.4,0.2-0.8,0.2-1.3v-0.1h0.1
			c0.1,0,0.2,0.1,0.3,0.1c0.3,0.2,0.7,0.2,1.1,0.3c0.3,0,0.6,0.1,0.9,0.1c0,0,0,0,0.1,0c0,0.1,0,0.1,0,0.2c0,0.3,0,0.5,0.1,0.8
			c0.1,0.5,0.5,0.8,0.9,1c0.3,0.1,0.6,0.2,0.9,0.2c0.4,0.1,0.9,0.1,1.3,0.1c0.6-0.1,1.2-0.2,1.7-0.6c0,0,0.1,0,0.2,0
			c0.7,0.2,1.5,0.4,2.1,0.7c0.3,0.1,0.7,0.3,0.9,0.6c0.5,0.4,0.9,0.8,1.3,1.2c0.3,0.3,0.6,0.7,0.9,1c0.1,0.1,0.1,0.2,0.2,0.3
			c0.6,0.7,1.3,1.4,1.9,2c0.5,0.5,0.9,1.1,1.3,1.6c0.3,0.5,0.7,0.9,1,1.3c0.3,0.4,0.6,0.8,0.8,1.3c0.2,0.4,0.3,0.8,0.4,1.3
			c0,0.2,0,0.4-0.1,0.6c-0.1,0.3-0.3,0.6-0.7,0.7c-0.1,0-0.1,0-0.2,0c-0.5,0-0.9-0.2-1.3-0.5l-0.1-0.1c-0.2-0.8-0.7-1.5-1.2-2.1
			c-0.3-0.4-0.7-0.7-1-1c-0.5-0.5-1-1-1.5-1.5c-0.5-0.6-0.9-1.2-1.3-1.9V34c0-0.1-0.1-0.1-0.2,0c-0.1,0-0.1,0.1-0.1,0.1v0.1
			c0.4,0.8,0.9,1.5,1.4,2.1c0.6,0.6,1.2,1.2,1.8,1.8s1.1,1.2,1.5,2c0.1,0.2,0.1,0.4,0.2,0.5c0,0.1,0.1,0.2,0,0.3
			c0,0.2-0.1,0.5-0.2,0.7c0.2,0.4-0.1,0.5-0.5,0.4c-0.3,0-0.6-0.2-0.8-0.3l-0.1-0.1c-0.5-0.4-1-0.9-1.5-1.4
			c-0.2-0.2-0.4-0.4-0.6-0.6c-0.8-0.8-1.5-1.5-2.4-2.2c-0.1-0.1-0.2-0.1-0.3-0.2h-0.1c-0.1,0-0.1,0-0.1,0.1s0,0.1,0,0.2
			c0,0,0,0,0.1,0c0.6,0.4,1.2,0.9,1.8,1.5c0.4,0.4,0.8,0.8,1.2,1.2c0.3,0.3,0.6,0.6,0.9,0.9c0.3,0.3,0.6,0.5,0.9,0.8
			c0,0,0,0,0.1,0.1c0,0.1-0.1,0.2-0.1,0.3c-0.1,0.2-0.3,0.5-0.5,0.7c-0.3,0.3-0.7,0.4-1.1,0.2c-0.2-0.1-0.3-0.1-0.5-0.3
			c-0.1-0.1-0.2-0.2-0.3-0.2c-0.8-0.6-1.6-1.2-2.4-1.8c-0.5-0.4-1.1-0.7-1.7-1c0,0-0.1,0-0.1-0.1c-0.1,0-0.1,0-0.2,0.1
			c0,0.1,0,0.1,0,0.2c0,0,0,0,0.1,0c0.7,0.3,1.3,0.7,1.9,1.1C28.5,41.7,29.2,42.2,29.9,42.7C29.8,42.7,29.9,42.7,29.9,42.7z"/>
		<path class="st2" d="M37.3,29.2c0.1,0.2,0.3,0.5,0.4,0.7c0.5,0.9,1,1.9,1.5,2.8c0.6,1.2,1.2,2.4,1.9,3.6v0.1
			c-0.1,0.1-0.3,0.2-0.4,0.3c-0.7,0.4-1.4,0.8-2.2,1.1c-0.2,0.1-0.5,0.2-0.7,0.4c-0.2,0.1-0.4,0.2-0.6,0.3c0,0,0-0.1-0.1-0.1
			c-0.3-0.5-0.6-1-1-1.4c-0.3-0.3-0.5-0.7-0.8-1c-0.6-0.8-1.1-1.5-1.8-2.1c-0.5-0.5-1-1-1.5-1.6l-0.1-0.1c-0.3-0.5-0.7-0.9-1.1-1.3
			c-0.4-0.3-0.8-0.7-1.1-1c-0.4-0.4-1-0.7-1.5-0.9c-0.6-0.2-1.2-0.4-1.9-0.6c-0.1,0-0.2,0-0.2,0c-0.4,0.3-0.8,0.5-1.3,0.5
			C24,29,23.3,29,22.5,28.7c-0.2-0.1-0.4-0.1-0.5-0.3c-0.3-0.3-0.5-0.6-0.5-1c0-0.1,0-0.2,0-0.4c0-0.1,0-0.1,0-0.2
			c0.2,0,0.3,0,0.5,0c0.5,0,0.9,0,1.4,0c0.3,0,0.6-0.1,0.8-0.3c0.2-0.1,0.3-0.2,0.5-0.3l0.1-0.1c0.4-0.3,0.8-0.4,1.3-0.4
			c0.4,0,0.8,0.1,1.2,0.2c0.5,0.2,1.1,0.3,1.6,0.4c0.7,0.2,1.5,0.4,2.2,0.7c0.8,0.3,1.5,0.8,2.1,1.4c0.4,0.4,0.9,0.7,1.4,1
			c0.4,0.2,0.8,0.3,1.2,0.3c0.5,0,0.9-0.1,1.2-0.4C37.2,29.3,37.2,29.3,37.3,29.2C37.2,29.2,37.2,29.2,37.3,29.2z"/>
		<path class="st2" d="M37,28.3c0.4-0.2,0.7-0.4,1.1-0.6c0,0,0,0.1,0.1,0.1c0.4,0.7,0.8,1.3,1.2,2c0.3,0.6,0.6,1.3,1,1.9
			c0.2,0.5,0.4,1,0.7,1.4c0.6,1.1,1.2,2.3,1.8,3.4c0,0,0,0.1,0.1,0.1c-0.3,0.2-0.7,0.4-1,0.6c-0.1-0.1-0.1-0.2-0.2-0.4
			c-0.6-1-1.1-2-1.7-3.1c-0.5-0.9-0.9-1.8-1.4-2.7c-0.5-0.9-1-1.9-1.6-2.8C37.1,28.4,37,28.4,37,28.3z"/>
		<path class="st2" d="M24,42.2c-0.4,0-0.8,0-1.2-0.1c-0.4-0.2-0.7-0.5-0.9-0.9c0-0.1,0-0.1,0-0.2c0.1-0.4,0.2-0.7,0.3-1.1
			c0.1-0.3,0.3-0.4,0.6-0.5c0.1,0,0.2,0,0.3,0c0.7,0.1,1.1,0.5,1.2,1.3c0.1,0.5,0,0.9-0.2,1.3C24.1,42.1,24.1,42.2,24,42.2z"/>
		<path class="st2" d="M21.7,41c-0.2,0-0.4,0-0.6-0.1c-0.1,0-0.3-0.1-0.4-0.1c-0.6-0.3-0.9-0.7-0.9-1.3s0.4-1.1,1-1.1
			c0.2,0,0.3,0,0.5,0.1c0.4,0.2,0.7,0.6,0.9,1c0,0,0,0.1,0,0.2C21.9,40,21.8,40.4,21.7,41C21.7,40.9,21.7,40.9,21.7,41z"/>
		<path class="st2" d="M26.9,43c-0.2,0.1-0.3,0.3-0.5,0.4c-0.2,0.1-0.4,0.1-0.5,0.1c-0.6-0.1-1.1-0.4-1.3-1
			c-0.2-0.4-0.1-0.8,0.2-1.1c0.1-0.1,0.3-0.1,0.4-0.1s0.2,0.1,0.4,0.2c0.2,0.1,0.4,0.3,0.6,0.5C26.4,42.3,26.7,42.6,26.9,43L26.9,43
			z"/>
		<path class="st2" d="M19.4,39.2c-0.6,0-1.1-0.2-1.4-0.7c-0.2-0.3-0.1-0.5,0-0.8c0.1-0.2,0.2-0.3,0.4-0.4h0.1
			c0.4,0.3,0.9,0.6,1.3,0.9C19.7,38.5,19.5,38.8,19.4,39.2z"/>
		<path class="st1" d="M11.4,34.1c-0.5,0-0.9-0.4-0.9-0.9s0.4-0.9,0.9-0.9s0.9,0.4,0.9,0.9C12.3,33.7,11.9,34.1,11.4,34.1z"/>
		<path class="st1" d="M14.2,35.1c-0.5,0-0.9-0.4-0.9-0.9s0.4-0.9,0.9-0.9c0.4,0,0.9,0.4,0.9,0.9C15.1,34.9,14.6,35.2,14.2,35.1z"/>
		<path class="st1" d="M12.6,37.2c-0.2-0.1-0.5-0.2-0.7-0.3c-0.6-0.2-1.2-0.5-1.8-0.7c-0.4-0.1-0.7-0.3-1-0.5
			c-0.1-0.1-0.3-0.1-0.4-0.2l-6.6-3v23.6h5.4c4.4,0,8-0.6,8-5.1V38.3c-0.7-0.2-1.3-0.5-2-0.8C13.2,37.5,12.9,37.3,12.6,37.2z"/>
		<path class="st1" d="M54.1,34c-1,0.5-2,1-3.1,1.6c-0.3,0.2-0.6,0.3-0.9,0.5c-0.1,0.1-0.3,0.2-0.4,0.2l-7.1,4.2c0,0-0.1,0-0.1,0.1
			L41.7,41h-0.1v10.1c0,4.4,3.6,5.1,8.1,5.1H55V33.5C54.7,33.7,54.4,33.8,54.1,34z"/>
		<g>
			<polygon class="st2" points="19.1,8.3 19.1,16.4 16.5,16.4 16.5,9.6 			"/>
			<polygon class="st2" points="14.4,10.6 14.4,16.4 11.8,16.4 11.8,11.9 			"/>
			<polygon class="st2" points="9.8,12.8 9.8,16.4 7.1,16.4 7.1,14.1 			"/>
			<polygon class="st2" points="23.8,6 23.8,16.4 21.1,16.4 21.1,7.3 			"/>
			<polygon class="st2" points="28.5,3.7 28.5,16.4 25.8,16.4 25.8,5 			"/>
			<polygon class="st2" points="5.1,16.6 2,16.6 5.1,15.1 			"/>
			<polygon class="st2" points="37.9,8.3 37.9,16.4 40.6,16.4 40.6,9.6 			"/>
			<polygon class="st2" points="42.6,10.6 42.6,16.4 45.3,16.4 45.3,11.9 			"/>
			<polygon class="st2" points="47.3,12.8 47.3,16.4 49.9,16.4 49.9,14.1 			"/>
			<polygon class="st2" points="33.2,6 33.2,16.4 35.9,16.4 35.9,7.3 			"/>
			<polygon class="st2" points="28.5,3.7 28.5,16.4 31.2,16.4 31.2,5 			"/>
			<polygon class="st2" points="51.9,16.6 55,16.6 51.9,15.1 			"/>
		</g>
	</g>
</g>
</svg>
